<?xml version="1.0" encoding="UTF-8"?> <svg xmlns="http://www.w3.org/2000/svg" xmlns:xlink="http://www.w3.org/1999/xlink" viewBox="0 0 283.14 94.2"><defs><style>.a,.b,.m{fill:#fff;}.a,.i,.j,.k,.p{stroke:#000101;}.a,.i,.j,.k,.l,.m,.n,.o,.p{stroke-width:0.4px;}.c{fill:#b9b9b9;stroke-width:0.6px;}.c,.l,.m,.n,.o{stroke:#000;}.d{clip-path:url(#a);}.e,.l{fill:#f4d500;}.e,.g,.k,.l,.n,.o,.p{fill-rule:evenodd;}.f,.g,.k{fill:#b92c32;}.h{fill:#00369c;}.i,.j,.o,.p{fill:none;}.j,.k,.l,.n,.o,.p{stroke-miterlimit:3.86;}.n{fill:#f1e438;}</style><clipPath id="a"><path class="a" d="M65.52,23.46V58.1C65.52,69.39,53.5,77,47.31,77c-5.34,0-18.7-7.53-18.7-19.19V23.46Z"></path></clipPath></defs><title>pucmm-logo</title><circle class="b" cx="47.18" cy="47.18" r="45.88" transform="translate(-19.54 47.18) rotate(-45)"></circle><path class="c" d="M47.1.3A46.8,46.8,0,1,0,93.9,47.1,46.8,46.8,0,0,0,47.1.3Zm0,84A37.22,37.22,0,1,1,84.32,47.1,37.21,37.21,0,0,1,47.1,84.32Z"></path><path d="M6.72,56.14a1.17,1.17,0,0,1,.41.7l.15.63,1.09-.27.15.63-3,.75-.32-1.3a1.13,1.13,0,0,1,.06-.78,1,1,0,0,1,.66-.44A1,1,0,0,1,6.72,56.14Zm-1,.75a.54.54,0,0,0,0,.36l.14.57.89-.22L6.62,57a.49.49,0,0,0-.19-.31.45.45,0,0,0-.37,0A.4.4,0,0,0,5.75,56.89Z"></path><path d="M7.12,52.15a1.36,1.36,0,0,1,.51,1,1.42,1.42,0,0,1-.21,1.07,1.7,1.7,0,0,1-1.2.65,1.63,1.63,0,0,1-1.34-.27,1.33,1.33,0,0,1-.51-1,1.32,1.32,0,0,1,.21-1.06,1.66,1.66,0,0,1,1.2-.66A1.69,1.69,0,0,1,7.12,52.15Zm-.41.47a1.25,1.25,0,0,0-.84-.1,1.23,1.23,0,0,0-.76.34.8.8,0,0,0,.18,1.22,1.23,1.23,0,0,0,.83.1,1.23,1.23,0,0,0,.77-.34.81.81,0,0,0-.18-1.22Z"></path><path d="M4.12,50.78l0-.68,2.1-1.35L4,48.87l0-.61,3.11-.17,0,.65L5,50.13,7.19,50l0,.6Z"></path><path d="M4,44.53l.55,0,0,.93,2.56.08,0,.65-2.56-.08,0,.94-.55,0Z"></path><path d="M7.29,43.06l-.06.64-3.09-.28.05-.65Z"></path><path d="M4.35,41.36l.34-2.19.54.08L5,40.81l.71.11.21-1.36.54.08L6.23,41l1.29.2-.1.64Z"></path><path d="M8.11,38.08,8,38.71l-3-.67.14-.63Z"></path><path d="M5.78,35.86a1.31,1.31,0,0,1-.09-1,1.25,1.25,0,0,1,.81-.94,1,1,0,0,1,.62,0l-.18.62a.92.92,0,0,0-.37.06.7.7,0,0,0-.22,1,1.38,1.38,0,0,0,.72.42,1.19,1.19,0,0,0,.81,0,.65.65,0,0,0,.4-.44A.63.63,0,0,0,8.21,35a1,1,0,0,0-.3-.25l.18-.62a1.35,1.35,0,0,1,.67.64,1.26,1.26,0,0,1,.06.94,1.33,1.33,0,0,1-.71.88,1.74,1.74,0,0,1-1.24,0A1.79,1.79,0,0,1,5.78,35.86Z"></path><path d="M9.71,32.81l-.23.61L6.57,32.34l.22-.61Z"></path><path d="M7.67,29.59l.3-.67,3.29.28-.29.65-.67-.08-.47,1,.5.46-.28.62Zm1.75.84.32-.72-1.27-.15Z"></path><path d="M9.88,25.25l.35-.56,1.62,1a1,1,0,0,0,.43.18.62.62,0,0,0,.55-.86,1.18,1.18,0,0,0-.36-.32l-1.62-1,.35-.56,1.62,1a1.8,1.8,0,0,1,.58.54,1.18,1.18,0,0,1-.15,1.2,1.15,1.15,0,0,1-1,.66,1.52,1.52,0,0,1-.74-.28Z"></path><path d="M12,21.92l.41-.54,2.48.33L13.19,20.4l.37-.49L16,21.8l-.4.51L13.12,22l1.76,1.33-.37.49Z"></path><path d="M17.23,20.42l-.43.49-2.34-2.05.42-.49Z"></path><path d="M17.1,16.05l.48-.48L19,18.52,18.6,19l-3-1.46.49-.49,2.15,1.19Z"></path><path d="M20.61,13.67l-1.26,1.07.43.5,1.15-1,.35.41-1.15,1,.51.61L22,15.15l.36.43-1.8,1.52-2-2.37,1.74-1.48Z"></path><path d="M23.08,11.29a.63.63,0,0,1,.36,0,.77.77,0,0,1,.28.12,1,1,0,0,1,.23.23.9.9,0,0,1,.16.43.62.62,0,0,1-.13.46.59.59,0,0,1,.4,0,1,1,0,0,1,.35.35l.12.17a1.52,1.52,0,0,0,.18.23.26.26,0,0,0,.2.07l0,.07-.58.41-.13-.11a1.18,1.18,0,0,1-.18-.21l-.17-.23A.64.64,0,0,0,23.9,13a.58.58,0,0,0-.36.13l-.52.37.7,1-.52.36-1.79-2.54,1.22-.86A1.11,1.11,0,0,1,23.08,11.29Zm-.84,1.14.48.69.57-.4a.81.81,0,0,0,.23-.22.36.36,0,0,0-.05-.4.41.41,0,0,0-.36-.21.62.62,0,0,0-.28.13Z"></path><path d="M26.17,11.77a.64.64,0,0,0,.26.22.73.73,0,0,0,.58-.11,1.31,1.31,0,0,0,.3-.24.36.36,0,0,0,.06-.45.26.26,0,0,0-.24-.14,1.61,1.61,0,0,0-.44.09l-.33.11a2.21,2.21,0,0,1-.71.13A.75.75,0,0,1,25,11,.89.89,0,0,1,25,10.2a1.31,1.31,0,0,1,.64-.69,1.33,1.33,0,0,1,.87-.2.93.93,0,0,1,.7.47l-.55.31a.45.45,0,0,0-.41-.22.91.91,0,0,0-.38.13.65.65,0,0,0-.3.29.31.31,0,0,0,0,.32.24.24,0,0,0,.25.14,1.75,1.75,0,0,0,.42-.09l.54-.16a1.48,1.48,0,0,1,.58-.08.79.79,0,0,1,.56.41.89.89,0,0,1,.07.78,1.41,1.41,0,0,1-.67.71,1.5,1.5,0,0,1-1,.25.94.94,0,0,1-.69-.49Z"></path><path d="M29.83,10.89l-.58.29L27.87,8.39l.58-.29Z"></path><path d="M31.43,6.86a1,1,0,0,1,.64.17,1.21,1.21,0,0,1,.4.38,2,2,0,0,1,.25.45,2.09,2.09,0,0,1,.17,1.07,1.12,1.12,0,0,1-.75.93l-1.24.51L29.72,7.49,31,7A1.71,1.71,0,0,1,31.43,6.86Zm-.92.89.77,1.88.56-.23a.65.65,0,0,0,.42-.66,1.71,1.71,0,0,0-.13-.59,1.46,1.46,0,0,0-.42-.62.62.62,0,0,0-.64,0Z"></path><path d="M34.28,5.78l.7-.21,2,2.65-.68.21-.38-.55-1.1.33v.68l-.65.2Zm.53,1.87.76-.23-.74-1.06Z"></path><path d="M39.06,4.64a1,1,0,0,1,.6.28,1.28,1.28,0,0,1,.32.45,2,2,0,0,1,.16.49,2,2,0,0,1,0,1.08,1.1,1.1,0,0,1-.9.78L37.9,8l-.64-3,1.32-.28A2.12,2.12,0,0,1,39.06,4.64ZM38,5.35l.41,2L39,7.21a.65.65,0,0,0,.54-.57,1.76,1.76,0,0,0,0-.6,1.59,1.59,0,0,0-.3-.69.64.64,0,0,0-.63-.12Z"></path><path d="M43.43,4.28a1.47,1.47,0,0,1,2.1,0,1.07,1.07,0,0,1,.25.57l-.65,0A.87.87,0,0,0,45,4.56a.62.62,0,0,0-.53-.17.61.61,0,0,0-.52.32,1.42,1.42,0,0,0-.15.82A1.16,1.16,0,0,0,44,6.3a.64.64,0,0,0,.55.22.59.59,0,0,0,.49-.25,1,1,0,0,0,.14-.37l.64-.05a1.38,1.38,0,0,1-.37.86,1.24,1.24,0,0,1-.85.37,1.3,1.3,0,0,1-1.07-.36,1.66,1.66,0,0,1-.46-1.15A1.76,1.76,0,0,1,43.43,4.28Z"></path><path d="M48,3.8l.74,0,1,3.14-.7,0-.19-.65-1.15,0-.22.63h-.68Zm-.09,1.94h.8l-.37-1.23Z"></path><path d="M53,4.15l0,.55L52,4.6l-.26,2.55-.65-.07.26-2.54-.93-.1.06-.55Z"></path><path d="M56,7.56a1.62,1.62,0,0,1-2-.39,1.67,1.67,0,0,1-.22-1.35,1.63,1.63,0,0,1,.71-1.17,1.34,1.34,0,0,1,1.07-.16A1.37,1.37,0,0,1,56.5,5a1.66,1.66,0,0,1,.22,1.35A1.67,1.67,0,0,1,56,7.56ZM55.7,7a1.28,1.28,0,0,0,.38-.76A1.24,1.24,0,0,0,56,5.43a.73.73,0,0,0-.55-.4.78.78,0,0,0-.66.16,1.33,1.33,0,0,0-.38.76,1.27,1.27,0,0,0,.08.84.74.74,0,0,0,.55.39A.72.72,0,0,0,55.7,7Zm.74-3.26-.75.5-.43-.08.52-.55Z"></path><path d="M58.33,5.2l.62.18-.7,2.46,1.49.43-.15.53-2.12-.61Z"></path><path d="M61.13,9.35l-.61-.22,1-2.93.61.22Z"></path><path d="M63.65,7.33a1.32,1.32,0,0,1,1,0,1.29,1.29,0,0,1,.84.93,1.16,1.16,0,0,1,0,.62l-.59-.26a1.16,1.16,0,0,0,0-.38.67.67,0,0,0-.4-.39.61.61,0,0,0-.61,0,1.38,1.38,0,0,0-.51.66,1.21,1.21,0,0,0-.12.8.64.64,0,0,0,.39.45.59.59,0,0,0,.55,0,.85.85,0,0,0,.3-.26l.59.26a1.39,1.39,0,0,1-.72.58,1.2,1.2,0,0,1-.94-.06,1.28,1.28,0,0,1-.78-.81,1.72,1.72,0,0,1,.12-1.24A1.75,1.75,0,0,1,63.65,7.33Z"></path><path d="M67.9,9l.65.36L68,12.62l-.62-.35.13-.66-1-.55-.5.46-.59-.33Zm-1,1.68.7.38.25-1.26Z"></path><path d="M73.74,12.8l.75.56-1.87,2.49-.48-.36L73.4,13.8l.15-.2.16-.2-2,1.73-.51-.38,1.1-2.44-.15.21-.15.2L70.7,14.41,70.21,14l1.87-2.49.76.57-1,2.3Z"></path><path d="M76.26,14.91l.55.49-1.29,3L75,18l.28-.61-.85-.78-.59.33-.5-.46Zm-1.34,1.4.59.53.54-1.17Z"></path><path d="M79.68,18.45a1,1,0,0,1,.07.65,1.46,1.46,0,0,1-.22.51,2.64,2.64,0,0,1-.34.39,2.1,2.1,0,0,1-1,.52,1.12,1.12,0,0,1-1.13-.38l-.91-1,2.31-2.1.9,1A1.44,1.44,0,0,1,79.68,18.45Zm-1.15-.57L77,19.25l.4.44a.64.64,0,0,0,.77.17,1.59,1.59,0,0,0,.51-.32,1.54,1.54,0,0,0,.44-.6.65.65,0,0,0-.21-.61Z"></path><path d="M82.28,21.69a.77.77,0,0,1,0,.37,1,1,0,0,1-.11.28.75.75,0,0,1-.23.24,1,1,0,0,1-.41.18.63.63,0,0,1-.47-.12.6.6,0,0,1,0,.4,1.05,1.05,0,0,1-.33.36l-.17.13a2.12,2.12,0,0,0-.22.18.25.25,0,0,0-.07.21l-.06,0-.44-.57.11-.13a1.8,1.8,0,0,1,.2-.19l.23-.17c.15-.13.24-.23.25-.32a.47.47,0,0,0-.14-.36L80,21.71l-1,.74-.38-.51,2.48-1.87.9,1.18A1.56,1.56,0,0,1,82.28,21.69ZM81.1,20.9l-.66.5.42.56a.77.77,0,0,0,.23.22.36.36,0,0,0,.39-.06.39.39,0,0,0,.19-.37.62.62,0,0,0-.13-.28Z"></path><path d="M84.23,25.5l-.88-1.39-.56.35.8,1.28-.46.29-.8-1.29-.68.43.92,1.46-.48.29-1.25-2,2.64-1.64,1.21,1.93Z"></path><path d="M87,29.74l.3.67-2.2-.14L84,30.75l-.27-.59,1.06-.48,1.33-1.79.31.7-1,1.15Z"></path><path d="M89,35.31l.26.9-3,.88-.17-.58,2-.6.25-.07.24-.07L85.93,36l-.18-.6L88.09,34l-.25.07-.24.08-2,.6-.17-.58,3-.89.27.91-2.18,1.24Z"></path><path d="M89.76,38.51l.14.72-2.85,1.68-.13-.7.58-.32-.21-1.12-.67-.09L86.49,38Zm-1.91.33.15.78L89.13,39Z"></path><path d="M90,43.92l-.17-1.64-.66.07.16,1.5-.54.06-.15-1.5-.8.08L88,44.2l-.55.06-.24-2.35,3.09-.31.24,2.27Z"></path><path d="M88.44,45.8a.63.63,0,0,0-.32.12.74.74,0,0,0-.18.56,1,1,0,0,0,.06.38.35.35,0,0,0,.36.27A.24.24,0,0,0,88.6,47a1.53,1.53,0,0,0,.14-.43l.07-.34a2.21,2.21,0,0,1,.22-.68.74.74,0,0,1,.67-.33.88.88,0,0,1,.7.3,1.26,1.26,0,0,1,.29.9,1.35,1.35,0,0,1-.24.85.93.93,0,0,1-.75.38V47a.46.46,0,0,0,.39-.26.8.8,0,0,0,.07-.39A.71.71,0,0,0,90,46a.31.31,0,0,0-.28-.15.27.27,0,0,0-.25.16,2.47,2.47,0,0,0-.12.41l-.12.55a1.24,1.24,0,0,1-.22.54.74.74,0,0,1-.63.29.9.9,0,0,1-.71-.32,1.39,1.39,0,0,1-.3-.92,1.6,1.6,0,0,1,.26-1,.94.94,0,0,1,.76-.36Z"></path><path d="M90.43,51.26l-.55,0,.06-.93-2.55-.16,0-.66,2.56.17.06-.93.55,0Z"></path><path d="M89.92,54.44a.92.92,0,0,1-.26.26,1,1,0,0,1-.29.11.73.73,0,0,1-.33,0,1,1,0,0,1-.41-.17.69.69,0,0,1-.25-.42.51.51,0,0,1-.29.27,1,1,0,0,1-.49,0l-.21,0a1.05,1.05,0,0,0-.28,0,.24.24,0,0,0-.2.09h-.08l.11-.71.17,0h.27l.29,0a.56.56,0,0,0,.41,0,.54.54,0,0,0,.15-.35l.1-.63-1.21-.18.1-.63,3.07.47L90.07,54A1.52,1.52,0,0,1,89.92,54.44Zm-.26-1.39-.82-.13-.11.69a.84.84,0,0,0,0,.32.34.34,0,0,0,.32.23.4.4,0,0,0,.41-.12.69.69,0,0,0,.1-.29Z"></path><path d="M89.41,57.28l-.18.71L86,58.31l.17-.69.67,0,.27-1.12-.57-.35.17-.66Zm-1.87-.51-.19.77,1.28-.09Z"></path><path d="M20.13,77.28a.76.76,0,0,1,.06.36.8.8,0,0,1-.06.3,1.06,1.06,0,0,1-.18.27.85.85,0,0,1-.37.24.58.58,0,0,1-.48,0,.56.56,0,0,1,.06.39,1.09,1.09,0,0,1-.26.41l-.14.16a1.33,1.33,0,0,0-.19.22.26.26,0,0,0,0,.21l-.05,0L18,79.38a1,1,0,0,1,.08-.15,1.06,1.06,0,0,1,.16-.21l.19-.22c.13-.14.2-.26.19-.35s-.07-.2-.2-.33l-.46-.43-.82.89-.47-.43,2.1-2.26,1.09,1A1.45,1.45,0,0,1,20.13,77.28Zm-1.29-.57-.56.61.51.47a.72.72,0,0,0,.26.18.36.36,0,0,0,.37-.13.37.37,0,0,0,.12-.4.57.57,0,0,0-.18-.24Z"></path><path d="M22.93,80.16l-1.29-1-.41.52,1.19.92-.33.42L20.9,80.1l-.48.63,1.35,1-.34.43-1.85-1.43,1.89-2.44,1.79,1.39Z"></path><path d="M25,83a1.18,1.18,0,0,1-.77-.24l-.54-.35-.61.93L22.5,83l1.69-2.58,1.11.72a1.09,1.09,0,0,1,.48.6.92.92,0,0,1-.17.77A1,1,0,0,1,25,83Zm.19-1.2a.51.51,0,0,0-.23-.28l-.49-.31-.49.76.48.31a.5.5,0,0,0,.35.1.46.46,0,0,0,.3-.23A.44.44,0,0,0,25.15,81.78Z"></path><path d="M27.07,82.2l.57.31-.89,1.67a1.06,1.06,0,0,0-.15.45.5.5,0,0,0,.33.47.51.51,0,0,0,.57,0,1.16,1.16,0,0,0,.28-.38l.89-1.67.58.31L28.36,85a1.67,1.67,0,0,1-.49.61,1.16,1.16,0,0,1-1.2-.07,1.14,1.14,0,0,1-.72-1,1.56,1.56,0,0,1,.22-.75Zm2.13.15-.85.26L28,82.4l.64-.36Z"></path><path d="M32.3,85.07a.74.74,0,0,1,0,.48.68.68,0,0,1-.31.37.72.72,0,0,1-.28.07.7.7,0,0,1,.22.39.84.84,0,0,1-.06.46,1,1,0,0,1-.32.4.83.83,0,0,1-.3.14.81.81,0,0,1-.38,0,2.83,2.83,0,0,1-.42-.13l-1.28-.54,1.2-2.85,1.37.58A.93.93,0,0,1,32.3,85.07Zm-2.09.63-.31.76.69.29a.68.68,0,0,0,.31.08.39.39,0,0,0,.33-.28.33.33,0,0,0-.05-.38.78.78,0,0,0-.26-.17Zm.47-1.09-.27.62.7.29a.58.58,0,0,0,.33.06.29.29,0,0,0,.22-.2.28.28,0,0,0-.05-.33,1.1,1.1,0,0,0-.31-.18Z"></path><path d="M33.71,85.23l.61.2-.78,2.41,1.47.47-.17.53-2.08-.67Z"></path><path d="M36.58,89.3,36,89.14l.77-3,.62.16Z"></path><path d="M38.73,87a1.43,1.43,0,0,1,2,.51,1.1,1.1,0,0,1,.11.6L40.21,88a.79.79,0,0,0-.09-.36.64.64,0,0,0-.47-.29.63.63,0,0,0-.58.18,1.31,1.31,0,0,0-.34.75,1.14,1.14,0,0,0,.06.8.67.67,0,0,0,.48.36.64.64,0,0,0,.54-.13A1.1,1.1,0,0,0,40,89l.63.11a1.41,1.41,0,0,1-.57.73,1.23,1.23,0,0,1-.91.16,1.34,1.34,0,0,1-1-.61,1.77,1.77,0,0,1-.15-1.23A1.71,1.71,0,0,1,38.73,87Z"></path><path d="M43,87.28l.72.07.8,3.18-.69-.07-.15-.65L42.5,89.7l-.27.62-.67-.07Zm-.23,1.91.79.07L43.24,88Z"></path><path d="M49.15,87.51a1,1,0,0,1,.54.37,1.24,1.24,0,0,1,.24.49,2.44,2.44,0,0,1,.08.51,2.14,2.14,0,0,1-.21,1.05,1.12,1.12,0,0,1-1,.62l-1.33,0-.11-3.08,1.33-.05A1.6,1.6,0,0,1,49.15,87.51ZM48,88l.07,2,.6,0a.65.65,0,0,0,.62-.47,1.76,1.76,0,0,0,.08-.59,1.49,1.49,0,0,0-.18-.72.63.63,0,0,0-.6-.23Z"></path><path d="M53.73,89.81a1.35,1.35,0,0,1-1,.49,1.38,1.38,0,0,1-1.05-.23,1.67,1.67,0,0,1-.62-1.2,1.61,1.61,0,0,1,.3-1.33,1.34,1.34,0,0,1,1-.48,1.36,1.36,0,0,1,1,.22A1.65,1.65,0,0,1,54,88.49,1.67,1.67,0,0,1,53.73,89.81Zm-.46-.41a1.21,1.21,0,0,0,.12-.83,1.22,1.22,0,0,0-.33-.77.73.73,0,0,0-.64-.2.74.74,0,0,0-.57.36,1.33,1.33,0,0,0-.12.83,1.28,1.28,0,0,0,.33.76.81.81,0,0,0,1.21-.15Z"></path><path d="M56.83,86.32l.9-.21.7,3-.59.13-.47-2c0-.06,0-.14,0-.25s0-.19-.06-.24l0,2.65-.61.14-1.15-2.39c0,.06,0,.14,0,.24s0,.19.06.25l.47,2-.58.14-.7-3,.92-.21,1.09,2.24Z"></path><path d="M60.33,88.53l-.61.19-.92-3,.62-.19Z"></path><path d="M60.53,85.23l.63-.25,1.92,1.57-.78-2,.56-.22L64,87.2l-.6.23-2-1.59.8,2-.57.21Z"></path><path d="M65.76,86.38l-.58.27-1.31-2.79.59-.28Z"></path><path d="M65.93,83.22a1.29,1.29,0,0,1,.65-.8,1.25,1.25,0,0,1,1.23-.09,1,1,0,0,1,.47.4l-.57.31a.82.82,0,0,0-.3-.22.67.67,0,0,0-.54.07.64.64,0,0,0-.34.52,1.38,1.38,0,0,0,.21.79,1.21,1.21,0,0,0,.56.58.64.64,0,0,0,.6,0,.59.59,0,0,0,.33-.44.92.92,0,0,0,0-.39l.56-.31a1.49,1.49,0,0,1,0,.93,1.42,1.42,0,0,1-1.73.82,1.71,1.71,0,0,1-.9-.85A1.69,1.69,0,0,1,65.93,83.22Z"></path><path d="M69.42,80.77l.61-.41,2.63,1.94-.58.4-.52-.42-.94.64.18.64-.56.38Zm1,1.61.66-.44-1-.79Z"></path><path d="M71.67,79.18l.53-.43,2.31.9L73.14,78l.47-.38,2,2.39-.5.41-2.36-.9,1.39,1.69-.47.38Z"></path><path d="M75.09,76.22l.53-.51,2.93,1.44-.5.49-.58-.31-.82.79.3.6-.49.47Zm1.32,1.4.56-.55-1.13-.6Z"></path><path d="M30,20.27h.5l-.78,2.3h-.46l-.78-2.3H29l.5,1.75Z"></path><path d="M32.65,20.68H31.44v.49h1.11v.4H31.44v.59h1.27v.41H31v-2.3h1.68Z"></path><path d="M34.72,20.33a.65.65,0,0,1,.21.16.76.76,0,0,1,.12.19.66.66,0,0,1,0,.25.76.76,0,0,1-.08.32.48.48,0,0,1-.28.22.43.43,0,0,1,.23.18A.82.82,0,0,1,35,22v.16a1.1,1.1,0,0,0,0,.21.18.18,0,0,0,.09.13v.06H34.6a.35.35,0,0,1,0-.12.68.68,0,0,1,0-.2V22a.42.42,0,0,0-.07-.29.39.39,0,0,0-.28-.07h-.47v.9h-.47v-2.3h1.1A.92.92,0,0,1,34.72,20.33Zm-1,.34v.62h.52a.47.47,0,0,0,.23,0,.26.26,0,0,0,.14-.26.3.3,0,0,0-.13-.28.47.47,0,0,0-.23,0Z"></path><path d="M36.15,22.57h-.48v-2.3h.48Z"></path><path d="M38.43,20.27v.41h-.69v1.89h-.48V20.68h-.7v-.41Z"></path><path d="M39.29,20.27h.54l.82,2.3h-.53L40,22.1h-.84l-.16.47h-.5Zm0,1.43h.59l-.29-.9Z"></path><path d="M41.44,21.86a.67.67,0,0,0,.09.24.53.53,0,0,0,.41.14,1,1,0,0,0,.28,0,.27.27,0,0,0,.21-.27.21.21,0,0,0-.1-.17,1.17,1.17,0,0,0-.32-.11l-.25-.06a1.64,1.64,0,0,1-.51-.17.57.57,0,0,1-.23-.5.65.65,0,0,1,.23-.51.94.94,0,0,1,.67-.21,1,1,0,0,1,.62.2.66.66,0,0,1,.28.56h-.46a.34.34,0,0,0-.19-.3.62.62,0,0,0-.29-.06.56.56,0,0,0-.3.08.23.23,0,0,0-.11.21.18.18,0,0,0,.11.18,1.43,1.43,0,0,0,.3.1l.41.09a1.07,1.07,0,0,1,.4.17.58.58,0,0,1,.2.47.66.66,0,0,1-.24.52,1,1,0,0,1-.69.21,1.09,1.09,0,0,1-.71-.21.65.65,0,0,1-.27-.56Z"></path><path d="M46.13,20.68H44.92v.49H46v.4H44.92v.59h1.27v.41H44.45v-2.3h1.68Z"></path><path d="M48.39,20.27v.41h-.68v1.89h-.49V20.68h-.69v-.41Z"></path><path d="M50.23,21.86a.52.52,0,0,0,.08.24.53.53,0,0,0,.41.14,1.12,1.12,0,0,0,.29,0,.28.28,0,0,0,.2-.27.19.19,0,0,0-.1-.17,1.06,1.06,0,0,0-.32-.11l-.25-.06a1.56,1.56,0,0,1-.5-.17.55.55,0,0,1-.23-.5.64.64,0,0,1,.22-.51,1,1,0,0,1,.67-.21,1,1,0,0,1,.63.2.68.68,0,0,1,.27.56h-.46a.34.34,0,0,0-.19-.3.58.58,0,0,0-.28-.06.57.57,0,0,0-.31.08.25.25,0,0,0-.11.21.2.2,0,0,0,.11.18,1.37,1.37,0,0,0,.31.1l.4.09a1,1,0,0,1,.4.17.55.55,0,0,1,.2.47.66.66,0,0,1-.24.52,1,1,0,0,1-.69.21,1.09,1.09,0,0,1-.71-.21.67.67,0,0,1-.26-.56Z"></path><path d="M52.39,20.51a.93.93,0,0,1,.71-.28.94.94,0,0,1,.84.38.8.8,0,0,1,.15.43h-.48a.58.58,0,0,0-.12-.25.52.52,0,0,0-.78.06,1,1,0,0,0-.15.6.89.89,0,0,0,.16.58.5.5,0,0,0,.4.19.44.44,0,0,0,.37-.17.63.63,0,0,0,.12-.26h.48a1,1,0,0,1-.32.61.94.94,0,0,1-.65.23,1,1,0,0,1-.77-.31,1.52,1.52,0,0,1,0-1.81Z"></path><path d="M55.07,22.57H54.6v-2.3h.47Z"></path><path d="M57.38,20.68H56.17v.49h1.11v.4H56.17v.59h1.27v.41H55.7v-2.3h1.68Z"></path><path d="M58,20.27h.51l.91,1.6v-1.6h.45v2.3h-.48l-.94-1.63v1.63H58Z"></path><path d="M62.11,20.27v.41h-.69v1.89h-.48V20.68h-.69v-.41Z"></path><path d="M63,22.57h-.48v-2.3H63Z"></path><path d="M64.25,20.27h.55l.81,2.3h-.52l-.15-.47h-.85l-.16.47h-.5Zm0,1.43h.59l-.29-.9Z"></path><path d="M42.88,80.37v-.3l.29,0a.4.4,0,0,0,.22-.12.35.35,0,0,0,.09-.16.51.51,0,0,0,0-.09h.37v2.26h-.46V80.37Z"></path><path d="M45.3,79.88a.71.71,0,0,1,.54-.23.7.7,0,0,1,.71.46,1.64,1.64,0,0,1,.11.68,1.91,1.91,0,0,1-.1.68.75.75,0,0,1-.74.53.72.72,0,0,1-.45-.15.59.59,0,0,1-.24-.44h.45a.3.3,0,0,0,.08.16.28.28,0,0,0,.18.06.32.32,0,0,0,.31-.24,1,1,0,0,0,.06-.39.33.33,0,0,1-.13.11.56.56,0,0,1-.3.08A.68.68,0,0,1,45.3,81a.67.67,0,0,1-.21-.54A.81.81,0,0,1,45.3,79.88Zm.75.89a.35.35,0,0,0,.15-.33.5.5,0,0,0-.09-.31.31.31,0,0,0-.25-.11.26.26,0,0,0-.19.07.38.38,0,0,0-.13.33.52.52,0,0,0,.08.31.34.34,0,0,0,.25.1A.3.3,0,0,0,46.05,80.77Z"></path><path d="M48.5,80.24a.19.19,0,0,0,0-.12.25.25,0,0,0-.22-.11.32.32,0,0,0-.31.25,2.14,2.14,0,0,0-.07.39.56.56,0,0,1,.2-.14.62.62,0,0,1,.25-.05.64.64,0,0,1,.49.21.71.71,0,0,1,.19.52.86.86,0,0,1-.19.56.69.69,0,0,1-.58.24.66.66,0,0,1-.63-.36,1.37,1.37,0,0,1-.16-.72c0-.17,0-.31,0-.42A1.51,1.51,0,0,1,47.6,80a.72.72,0,0,1,.26-.26.64.64,0,0,1,.37-.1.72.72,0,0,1,.5.16.58.58,0,0,1,.21.43ZM48,81.51a.32.32,0,0,0,.25.12.3.3,0,0,0,.24-.11.52.52,0,0,0,.08-.29.43.43,0,0,0-.1-.31.29.29,0,0,0-.23-.1.27.27,0,0,0-.2.07.37.37,0,0,0-.13.32A.45.45,0,0,0,48,81.51Z"></path><path d="M49.87,81.49a1.22,1.22,0,0,1,.45-.48,3,3,0,0,0,.39-.32.43.43,0,0,0,.14-.32.32.32,0,0,0-.08-.24.27.27,0,0,0-.22-.1.29.29,0,0,0-.28.16.76.76,0,0,0-.05.27h-.43a1.16,1.16,0,0,1,.1-.46.65.65,0,0,1,.64-.34.78.78,0,0,1,.57.2.69.69,0,0,1,.21.52.72.72,0,0,1-.15.45,1.58,1.58,0,0,1-.32.29l-.18.12-.23.18a.29.29,0,0,0-.1.12h1v.39H49.76A1.06,1.06,0,0,1,49.87,81.49Z"></path><path class="b" d="M65.52,23.46V58.1C65.52,69.39,53.5,77,47.31,77c-5.34,0-18.7-7.53-18.7-19.19V23.46Z"></path><g class="d"><path class="e" d="M37.74,37.94l-.07,35c-8.86-6-9-13.25-9-15.22V37.94Z"></path><rect class="f" x="28.61" y="23.46" width="36.91" height="14.48"></rect><path class="g" d="M47.31,60.38V58.83H65.52C65,69.81,53.26,77,47.31,77Z"></path><rect class="h" x="47.31" y="37.94" width="18.21" height="18.21"></rect><line class="i" x1="28.68" y1="37.94" x2="65.59" y2="37.94"></line><line class="i" x1="47.31" y1="37.94" x2="47.31" y2="77.04"></line><line class="i" x1="47.42" y1="56.14" x2="65.52" y2="56.14"></line><line class="i" x1="47.31" y1="58.83" x2="65.52" y2="58.83"></line></g><path class="i" d="M65.52,23.46V58.1C65.52,69.39,53.5,77,47.31,77c-5.34,0-18.7-7.53-18.7-19.19V23.46Z"></path><line class="j" x1="37.81" y1="68.71" x2="37.81" y2="73.19"></line><path class="k" d="M37.81,41.75l-.63.77a3,3,0,0,0-1.46,1.86,5,5,0,0,0-.11,1.49h1.15v1.74H35.09a.65.65,0,0,1-.31-.72.6.6,0,0,1,.31-.42,1.22,1.22,0,0,0-1.51.54,1.1,1.1,0,0,0-.11,1,2.15,2.15,0,0,0-1.14.42,1.66,1.66,0,0,0-.58.54,1.85,1.85,0,0,0,.58.6,1.9,1.9,0,0,0,1.14.42,1.1,1.1,0,0,0,.11,1,1.23,1.23,0,0,0,1.51.54.6.6,0,0,1-.31-.42.66.66,0,0,1,.31-.72h1.67V53H34.67l3.14,15.67L40.94,53H38.85V50.41h1.67a.66.66,0,0,1,.31.72.6.6,0,0,1-.31.42A1.24,1.24,0,0,0,42,51a1.1,1.1,0,0,0,.11-1,2.25,2.25,0,0,0,1.72-1,1.72,1.72,0,0,0-.57-.54A2.21,2.21,0,0,0,42.14,48,1.1,1.1,0,0,0,42,47a1.22,1.22,0,0,0-1.51-.54.58.58,0,0,1,.31.42.65.65,0,0,1-.31.72H38.85V45.87H40a5,5,0,0,0-.11-1.49,2.91,2.91,0,0,0-1.46-1.86Z"></path><line class="j" x1="37.81" y1="41.8" x2="37.81" y2="38.04"></line><path class="l" d="M39.37,33.47l23-8.79.36.92L39.62,34.31c1,.24,1.45,2.06.29,2.59-1.77.81-2.21-1.06-1.8-2,0,1.16-2,2.54-2.88.66s1.69-2.54,2.48-1.68a1.56,1.56,0,0,1,0-2.8C39.51,30.43,40,32.56,39.37,33.47Z"></path><polygon class="l" points="60.55 26.43 61.81 28.07 62.21 29.11 61.53 29.37 61.13 28.33 60.53 28.56 60.93 29.6 60.21 29.88 59.83 28.9 59.06 29.19 59.44 30.18 58.71 30.45 58.34 29.47 57.65 29.73 58.03 30.71 57.43 30.94 56.99 29.79 56.71 27.91 60.55 26.43"></polygon><path class="m" d="M54.42,33.47l-23-8.79-.37.92,23.07,8.71c-1,.24-1.44,2.06-.28,2.59,1.77.81,2.2-1.06,1.8-2,0,1.16,2,2.54,2.88.66s-1.7-2.54-2.49-1.68a1.56,1.56,0,0,0,0-2.8C54.28,30.43,53.75,32.56,54.42,33.47Z"></path><polygon class="m" points="33.24 26.43 31.98 28.07 31.58 29.11 32.26 29.37 32.66 28.33 33.26 28.56 32.86 29.6 33.58 29.88 33.96 28.9 34.73 29.19 34.35 30.18 35.07 30.45 35.45 29.47 36.13 29.73 35.76 30.71 36.35 30.94 36.8 29.79 37.08 27.91 33.24 26.43"></polygon><polygon class="n" points="46.8 27.72 46.8 26.81 46.09 26.81 46.09 26.14 46.8 26.14 46.8 25.46 47.46 25.46 47.46 26.14 48.22 26.14 48.23 26.81 47.46 26.81 47.46 27.72 46.8 27.72"></polygon><path class="l" d="M44.11,35.46l-1-6.09-.31-1.58c.18-.08.45.84.61.78a8.55,8.55,0,0,1,3.82-.73,8.56,8.56,0,0,1,3.73.69c.19.08.38-.84.59-.74l-1.2,7.67a7.93,7.93,0,0,0-6.24,0Z"></path><path class="o" d="M51.18,30.28a11.63,11.63,0,0,0-4-1,11.1,11.1,0,0,0-4,.87"></path><polyline class="p" points="44.06 29.87 43.84 29.34 44.02 28.68 44.63 29.02 44.85 29.56"></polyline><polyline class="p" points="45.73 29.4 45.65 28.83 46.02 28.22 46.57 28.7 46.66 29.29"></polyline><polyline class="p" points="47.56 29.33 47.65 28.74 48.19 28.23 48.6 28.87 48.51 29.49"></polyline><polyline class="p" points="49.39 29.51 49.62 28.98 50.24 28.66 50.43 29.34 50.19 29.89"></polyline><path class="o" d="M50.7,33a9,9,0,0,0-3.56-.8,8.26,8.26,0,0,0-3.42.74"></path><polyline class="p" points="49.77 32.47 50.06 31.62 50.73 30.94 50.87 31.89 50.57 32.78"></polyline><polyline class="p" points="48.31 32.19 48.53 31.26 49.17 30.48 49.41 31.47 49.19 32.43"></polyline><polyline class="p" points="46.82 32.09 46.85 31.16 47.3 30.28 47.72 31.18 47.69 32.15"></polyline><polyline class="p" points="45.33 32.31 45.16 31.39 45.44 30.41 46.06 31.22 46.24 32.19"></polyline><polyline class="p" points="43.82 32.73 43.56 31.82 43.73 30.82 44.42 31.58 44.69 32.53"></polyline><polyline class="p" points="44.27 35.23 44.06 34.39 44.28 33.46 44.95 34.15 45.18 35.03"></polyline><polyline class="p" points="45.89 34.79 45.8 33.93 46.16 33.06 46.72 33.83 46.81 34.72"></polyline><polyline class="p" points="47.64 34.71 47.71 33.88 48.22 33.11 48.63 33.94 48.57 34.81"></polyline><polyline class="p" points="49.37 35.02 49.59 34.23 50.22 33.57 50.48 34.46 50.26 35.29"></polyline><path class="b" d="M131.7,32.82c-2,1.69-4.91,2.54-8.67,2.54h-7.19V47.78h-7.17V13.23H123.5a12,12,0,0,1,8.18,2.67q3,2.67,3,8.28C134.73,28.25,133.72,31.14,131.7,32.82Zm-5.51-12.44a5.82,5.82,0,0,0-3.85-1.15h-6.5V29.4h6.5a5.54,5.54,0,0,0,3.85-1.24,5.09,5.09,0,0,0,1.37-3.94A4.77,4.77,0,0,0,126.19,20.38Z"></path><path class="b" d="M140.52,13.23h7.34V34.45a12.06,12.06,0,0,0,.84,5.2q1.31,2.9,5.69,2.9t5.68-2.9a12.06,12.06,0,0,0,.84-5.2V13.23h7.34V34.46q0,5.52-1.71,8.58-3.18,5.63-12.15,5.63T142.23,43q-1.71-3.06-1.71-8.58Z"></path><path class="b" d="M178.48,16.84a14.25,14.25,0,0,1,10.62-4.27q8.63,0,12.62,5.72a12.55,12.55,0,0,1,2.36,6.45h-7.22A9.78,9.78,0,0,0,195.09,21a7.84,7.84,0,0,0-11.8.92q-2.22,3.18-2.22,9t2.34,8.71a7.37,7.37,0,0,0,6,2.89A6.76,6.76,0,0,0,195.05,40a10.83,10.83,0,0,0,1.79-4H204a15.58,15.58,0,0,1-4.74,9.19,13.79,13.79,0,0,1-9.77,3.54q-7.38,0-11.6-4.78t-4.22-13.17Q173.68,21.73,178.48,16.84Z"></path><path class="b" d="M232.76,13.23h10.39V47.78h-6.73V24.41q0-1,0-2.82c0-1.21,0-2.15,0-2.8l-6.55,29h-7l-6.5-29c0,.65,0,1.59,0,2.8s0,2.15,0,2.82V47.78h-6.73V13.23h10.5l6.29,27.16Z"></path><path class="b" d="M272.75,13.23h10.39V47.78h-6.73V24.41c0-.67,0-1.61,0-2.82s0-2.15,0-2.8l-6.55,29h-7l-6.5-29c0,.65,0,1.59,0,2.8s0,2.15,0,2.82V47.78h-6.73V13.23h10.51l6.29,27.16Z"></path><path class="b" d="M108.89,57h3.89a2.61,2.61,0,0,1,1.86.65,2.35,2.35,0,0,1,.71,1.84,2.7,2.7,0,0,1-.63,1.77,2.4,2.4,0,0,1-1.94.75h-2.71v3.68h-1.18Zm4.57,1.19A2.56,2.56,0,0,0,112.4,58h-2.33v3h2.33a2.14,2.14,0,0,0,1.27-.34,1.33,1.33,0,0,0,.49-1.19A1.3,1.3,0,0,0,113.46,58.15Z"></path><path class="b" d="M121.7,59.94a3.22,3.22,0,0,1,.84,2.4,4.15,4.15,0,0,1-.74,2.53,2.67,2.67,0,0,1-2.3,1,2.59,2.59,0,0,1-2.06-.88,3.51,3.51,0,0,1-.76-2.38,3.77,3.77,0,0,1,.8-2.54,2.7,2.7,0,0,1,2.16-.94A2.86,2.86,0,0,1,121.7,59.94ZM121,64.15a4,4,0,0,0,.39-1.78,3.15,3.15,0,0,0-.29-1.44,1.56,1.56,0,0,0-1.53-.87,1.49,1.49,0,0,0-1.4.74,3.5,3.5,0,0,0-.44,1.8,3,3,0,0,0,.44,1.68,1.52,1.52,0,0,0,1.39.67A1.44,1.44,0,0,0,121,64.15Z"></path><path class="b" d="M124.23,59.31h1v.9a2.81,2.81,0,0,1,1-.8,2.51,2.51,0,0,1,1.11-.24,1.85,1.85,0,0,1,1.83.94,3.36,3.36,0,0,1,.26,1.47v4.07h-1.09v-4a2.06,2.06,0,0,0-.17-.93,1,1,0,0,0-1-.59,2.16,2.16,0,0,0-.62.07,1.7,1.7,0,0,0-1.11,1.17,4,4,0,0,0-.08,1v3.32h-1.07Z"></path><path class="b" d="M131.57,57.54h1.08v1.77h1v.87h-1v4.13a.46.46,0,0,0,.22.45,1.06,1.06,0,0,0,.42.06h.16l.21,0v.85a2.32,2.32,0,0,1-.38.07,2.9,2.9,0,0,1-.43,0,1.13,1.13,0,0,1-1-.39,1.66,1.66,0,0,1-.27-1V60.18h-.86v-.87h.86Z"></path><path class="b" d="M135.11,57h1.08v1.2h-1.08Zm0,2.38h1.08v6.31h-1.08Z"></path><path class="b" d="M138.69,57.38a1.62,1.62,0,0,1,1.44-.55h.44v1h-.38c-.33,0-.52.08-.58.25a4.56,4.56,0,0,0-.1,1.28h1.06v.84h-1.06v5.47h-1V60.18h-.88v-.84h.88v-1A1.79,1.79,0,0,1,138.69,57.38Z"></path><path class="b" d="M141.94,57H143v1.2h-1.09Zm0,2.38H143v6.31h-1.09Z"></path><path class="b" d="M149.21,59.65a2.5,2.5,0,0,1,.81,1.79h-1a1.88,1.88,0,0,0-.43-1,1.37,1.37,0,0,0-1.08-.39,1.5,1.5,0,0,0-1.46,1,3.94,3.94,0,0,0-.28,1.59,3,3,0,0,0,.4,1.6,1.37,1.37,0,0,0,1.27.65,1.39,1.39,0,0,0,1-.4A2.31,2.31,0,0,0,149,63.4h1a2.5,2.5,0,0,1-2.71,2.43,2.4,2.4,0,0,1-2-.91,3.48,3.48,0,0,1-.74-2.27,3.79,3.79,0,0,1,.81-2.59,2.62,2.62,0,0,1,2.07-.93A2.75,2.75,0,0,1,149.21,59.65Z"></path><path class="b" d="M151.47,57h1.08v1.2h-1.08Zm0,2.38h1.08v6.31h-1.08Z"></path><path class="b" d="M157.94,61.81a.55.55,0,0,0,.49-.31,1,1,0,0,0-.31-1.2,2.13,2.13,0,0,0-1.11-.24,1.41,1.41,0,0,0-1.18.45,1.46,1.46,0,0,0-.25.74h-1a1.84,1.84,0,0,1,.76-1.63,3.09,3.09,0,0,1,1.7-.46,3.49,3.49,0,0,1,1.81.42,1.46,1.46,0,0,1,.69,1.33v3.65a.4.4,0,0,0,.07.26c0,.07.14.1.29.1h.15l.19,0v.78a2.35,2.35,0,0,1-.37.09,1.84,1.84,0,0,1-.36,0,.88.88,0,0,1-.8-.39,1.53,1.53,0,0,1-.18-.58,2.65,2.65,0,0,1-.94.73,2.85,2.85,0,0,1-1.34.32,2,2,0,0,1-1.44-.54,1.77,1.77,0,0,1-.56-1.33,1.75,1.75,0,0,1,.55-1.37,2.7,2.7,0,0,1,1.45-.6Zm-2.24,2.88a1.3,1.3,0,0,0,.8.26,2.36,2.36,0,0,0,1.09-.26,1.45,1.45,0,0,0,.89-1.41v-.85a1.75,1.75,0,0,1-.51.2,3.19,3.19,0,0,1-.6.12l-.64.08a2.61,2.61,0,0,0-.87.25.94.94,0,0,0-.5.88A.9.9,0,0,0,155.7,64.69Z"></path><path class="b" d="M166.84,57v5.37a3.12,3.12,0,0,0,.36,1.57,1.88,1.88,0,0,0,1.79.95,2.1,2.1,0,0,0,2-1,3.29,3.29,0,0,0,.29-1.49V57h1.19v4.88a5.74,5.74,0,0,1-.43,2.46,3.65,3.65,0,0,1-6,0,5.74,5.74,0,0,1-.43-2.46V57Z"></path><path class="b" d="M174.56,59.31h1v.9a2.81,2.81,0,0,1,1-.8,2.51,2.51,0,0,1,1.11-.24,1.85,1.85,0,0,1,1.83.94,3.36,3.36,0,0,1,.26,1.47v4.07h-1.09v-4a2.06,2.06,0,0,0-.17-.93,1,1,0,0,0-1-.59,2.16,2.16,0,0,0-.62.07,1.7,1.7,0,0,0-1.11,1.17,4,4,0,0,0-.08,1v3.32h-1.07Z"></path><path class="b" d="M181.69,57h1.08v1.2h-1.08Zm0,2.38h1.08v6.31h-1.08Z"></path><path class="b" d="M185.29,59.31,187,64.47l1.77-5.16h1.16l-2.39,6.34h-1.13l-2.34-6.34Z"></path><path class="b" d="M195.12,59.48a2.52,2.52,0,0,1,1,.82,2.76,2.76,0,0,1,.43,1.12,7.71,7.71,0,0,1,.09,1.4H192a2.76,2.76,0,0,0,.45,1.55,1.52,1.52,0,0,0,1.31.58,1.65,1.65,0,0,0,1.32-.55,1.71,1.71,0,0,0,.39-.74h1a2.42,2.42,0,0,1-.27.78,3.27,3.27,0,0,1-.52.7,2.63,2.63,0,0,1-1.2.64,3.72,3.72,0,0,1-.86.09,2.65,2.65,0,0,1-2-.86,3.34,3.34,0,0,1-.82-2.41,3.71,3.71,0,0,1,.82-2.48,2.73,2.73,0,0,1,2.15-.95A2.83,2.83,0,0,1,195.12,59.48Zm.39,2.49a3,3,0,0,0-.3-1.1,1.53,1.53,0,0,0-1.45-.77,1.57,1.57,0,0,0-1.22.53A2,2,0,0,0,192,62Z"></path><path class="b" d="M198.37,59.31h1V60.4a2.26,2.26,0,0,1,.61-.77,1.54,1.54,0,0,1,1.11-.46h.1l.25,0v1.12l-.18,0h-.17a1.51,1.51,0,0,0-1.24.52,1.78,1.78,0,0,0-.43,1.19v3.65h-1.06Z"></path><path class="b" d="M203.39,63.66a1.58,1.58,0,0,0,.27.81,1.72,1.72,0,0,0,1.43.52,2.16,2.16,0,0,0,1.06-.26.84.84,0,0,0,.46-.79.68.68,0,0,0-.37-.63,5.08,5.08,0,0,0-.92-.3l-.86-.21a4,4,0,0,1-1.22-.45,1.35,1.35,0,0,1-.69-1.19,1.81,1.81,0,0,1,.65-1.46,2.66,2.66,0,0,1,1.77-.56,2.46,2.46,0,0,1,2.09.84,1.8,1.8,0,0,1,.39,1.15h-1a1.13,1.13,0,0,0-.26-.65,1.68,1.68,0,0,0-1.3-.42,1.59,1.59,0,0,0-.93.23.7.7,0,0,0-.32.61.76.76,0,0,0,.42.66,2.54,2.54,0,0,0,.71.26l.72.17a5.22,5.22,0,0,1,1.56.54,1.41,1.41,0,0,1,.62,1.28,1.91,1.91,0,0,1-.65,1.46,2.78,2.78,0,0,1-2,.62,2.68,2.68,0,0,1-2-.64,2.42,2.42,0,0,1-.64-1.59Z"></path><path class="b" d="M209.2,57h1.09v1.2H209.2Zm0,2.38h1.09v6.31H209.2Z"></path><path class="b" d="M215.76,59.5a2.86,2.86,0,0,1,.65.63v-3.2h1v8.72h-1v-.89a2.3,2.3,0,0,1-.88.85,2.51,2.51,0,0,1-1.16.26,2.34,2.34,0,0,1-1.82-.89,3.46,3.46,0,0,1-.78-2.37,4.12,4.12,0,0,1,.71-2.4,2.31,2.31,0,0,1,2-1A2.26,2.26,0,0,1,215.76,59.5Zm-2.37,4.75a1.48,1.48,0,0,0,1.37.69,1.45,1.45,0,0,0,1.21-.63,3,3,0,0,0,.48-1.83A2.76,2.76,0,0,0,216,60.7a1.54,1.54,0,0,0-1.21-.57,1.61,1.61,0,0,0-1.3.61,2.83,2.83,0,0,0-.49,1.81A3.09,3.09,0,0,0,213.39,64.25Z"></path><path class="b" d="M222.8,61.81a.55.55,0,0,0,.49-.31,1,1,0,0,0-.31-1.2,2.13,2.13,0,0,0-1.11-.24,1.41,1.41,0,0,0-1.18.45,1.46,1.46,0,0,0-.25.74h-1a1.84,1.84,0,0,1,.76-1.63,3.08,3.08,0,0,1,1.69-.46,3.5,3.5,0,0,1,1.82.42,1.46,1.46,0,0,1,.69,1.33v3.65a.4.4,0,0,0,.07.26c0,.07.14.1.29.1h.16l.18,0v.78a2.35,2.35,0,0,1-.37.09,1.84,1.84,0,0,1-.36,0,.88.88,0,0,1-.8-.39,1.53,1.53,0,0,1-.18-.58,2.65,2.65,0,0,1-.94.73,2.85,2.85,0,0,1-1.34.32,2,2,0,0,1-1.44-.54,1.77,1.77,0,0,1-.56-1.33,1.75,1.75,0,0,1,.55-1.37,2.7,2.7,0,0,1,1.45-.6Zm-2.24,2.88a1.3,1.3,0,0,0,.8.26,2.36,2.36,0,0,0,1.09-.26,1.45,1.45,0,0,0,.89-1.41v-.85a1.75,1.75,0,0,1-.51.2,3.19,3.19,0,0,1-.6.12l-.64.08a2.61,2.61,0,0,0-.87.25.94.94,0,0,0-.5.88A.9.9,0,0,0,220.56,64.69Z"></path><path class="b" d="M230,59.5a2.86,2.86,0,0,1,.65.63v-3.2h1v8.72h-1v-.89a2.3,2.3,0,0,1-.88.85,2.51,2.51,0,0,1-1.16.26,2.34,2.34,0,0,1-1.82-.89,3.46,3.46,0,0,1-.78-2.37,4.12,4.12,0,0,1,.71-2.4,2.31,2.31,0,0,1,2-1A2.26,2.26,0,0,1,230,59.5Zm-2.37,4.75a1.48,1.48,0,0,0,1.37.69,1.43,1.43,0,0,0,1.21-.63,3,3,0,0,0,.48-1.83,2.76,2.76,0,0,0-.49-1.78,1.54,1.54,0,0,0-1.21-.57,1.57,1.57,0,0,0-1.29.61,2.77,2.77,0,0,0-.5,1.81A3.09,3.09,0,0,0,227.64,64.25Z"></path><path class="b" d="M243.7,57.59a3.11,3.11,0,0,1,1,2h-1.15a2.18,2.18,0,0,0-2.37-1.82,2.51,2.51,0,0,0-2,.91,4.13,4.13,0,0,0-.78,2.76,4.05,4.05,0,0,0,.7,2.48,2.44,2.44,0,0,0,2.09,1,2.2,2.2,0,0,0,2-1,4,4,0,0,0,.53-1.38h1.14a3.94,3.94,0,0,1-1,2.3A3.59,3.59,0,0,1,241,65.88,3.64,3.64,0,0,1,238.5,65a5.68,5.68,0,0,1-.33-6.9,3.62,3.62,0,0,1,3-1.34A3.49,3.49,0,0,1,243.7,57.59Z"></path><path class="b" d="M249.94,61.81a.55.55,0,0,0,.49-.31,1,1,0,0,0-.31-1.2,2.13,2.13,0,0,0-1.11-.24,1.41,1.41,0,0,0-1.18.45,1.46,1.46,0,0,0-.25.74h-1a1.84,1.84,0,0,1,.76-1.63,3.09,3.09,0,0,1,1.7-.46,3.49,3.49,0,0,1,1.81.42,1.46,1.46,0,0,1,.69,1.33v3.65a.4.4,0,0,0,.07.26c0,.07.14.1.29.1h.15l.19,0v.78a2.35,2.35,0,0,1-.37.09,1.84,1.84,0,0,1-.36,0,.88.88,0,0,1-.8-.39,1.53,1.53,0,0,1-.18-.58,2.65,2.65,0,0,1-.94.73,2.85,2.85,0,0,1-1.34.32,2,2,0,0,1-1.44-.54,1.77,1.77,0,0,1-.56-1.33,1.75,1.75,0,0,1,.55-1.37,2.7,2.7,0,0,1,1.45-.6Zm-2.24,2.88a1.3,1.3,0,0,0,.8.26,2.36,2.36,0,0,0,1.09-.26,1.45,1.45,0,0,0,.89-1.41v-.85a1.75,1.75,0,0,1-.51.2,3.19,3.19,0,0,1-.6.12l-.64.08a2.61,2.61,0,0,0-.87.25.94.94,0,0,0-.5.88A.9.9,0,0,0,247.7,64.69Z"></path><path class="b" d="M253.89,57.54H255v1.77h1v.87h-1v4.13a.47.47,0,0,0,.23.45,1,1,0,0,0,.41.06h.17l.2,0v.85a2.32,2.32,0,0,1-.38.07,2.81,2.81,0,0,1-.43,0,1.15,1.15,0,0,1-1-.39,1.73,1.73,0,0,1-.26-1V60.18H253v-.87h.86Z"></path><path class="b" d="M262,59.94a3.22,3.22,0,0,1,.84,2.4,4.15,4.15,0,0,1-.74,2.53,2.67,2.67,0,0,1-2.3,1,2.59,2.59,0,0,1-2.06-.88,3.51,3.51,0,0,1-.76-2.38,3.77,3.77,0,0,1,.8-2.54,2.7,2.7,0,0,1,2.16-.94A2.86,2.86,0,0,1,262,59.94Zm-.66,4.21a4,4,0,0,0,.39-1.78,3.15,3.15,0,0,0-.29-1.44,1.56,1.56,0,0,0-1.53-.87,1.49,1.49,0,0,0-1.4.74,3.5,3.5,0,0,0-.44,1.8,3,3,0,0,0,.44,1.68,1.54,1.54,0,0,0,1.39.67A1.44,1.44,0,0,0,261.36,64.15Zm-.14-7.39-1.58,1.71h-.82l1.09-1.71Z"></path><path class="b" d="M264.58,57h1.07v8.69h-1.07Z"></path><path class="b" d="M267.63,57h1.08v1.2h-1.08Zm0,2.38h1.08v6.31h-1.08Z"></path><path class="b" d="M274.9,59.65a2.49,2.49,0,0,1,.8,1.79h-1a2,2,0,0,0-.43-1,1.38,1.38,0,0,0-1.09-.39,1.49,1.49,0,0,0-1.45,1,3.93,3.93,0,0,0-.29,1.59,3,3,0,0,0,.41,1.6,1.36,1.36,0,0,0,1.26.65,1.39,1.39,0,0,0,1.05-.4,2.23,2.23,0,0,0,.54-1.11h1a2.49,2.49,0,0,1-2.7,2.43,2.4,2.4,0,0,1-2-.91,3.43,3.43,0,0,1-.74-2.27,3.79,3.79,0,0,1,.81-2.59,2.62,2.62,0,0,1,2.06-.93A2.76,2.76,0,0,1,274.9,59.65Z"></path><path class="b" d="M280.55,61.81a.55.55,0,0,0,.49-.31,1.07,1.07,0,0,0-.31-1.2,2.13,2.13,0,0,0-1.11-.24,1.39,1.39,0,0,0-1.18.45,1.46,1.46,0,0,0-.26.74h-1a1.82,1.82,0,0,1,.76-1.63,3.08,3.08,0,0,1,1.69-.46,3.5,3.5,0,0,1,1.82.42,1.46,1.46,0,0,1,.69,1.33v3.65a.4.4,0,0,0,.07.26c0,.07.14.1.28.1h.16l.19,0v.78a2.19,2.19,0,0,1-.38.09,1.68,1.68,0,0,1-.35,0,.88.88,0,0,1-.8-.39,1.37,1.37,0,0,1-.18-.58,2.65,2.65,0,0,1-.94.73,2.85,2.85,0,0,1-1.34.32,2,2,0,0,1-1.44-.54,1.77,1.77,0,0,1-.56-1.33,1.71,1.71,0,0,1,.55-1.37,2.7,2.7,0,0,1,1.44-.6Zm-2.24,2.88a1.28,1.28,0,0,0,.8.26,2.36,2.36,0,0,0,1.09-.26,1.44,1.44,0,0,0,.88-1.41v-.85a1.68,1.68,0,0,1-.5.2,3.19,3.19,0,0,1-.6.12l-.64.08a2.76,2.76,0,0,0-.88.25A1,1,0,0,0,278,64,.87.87,0,0,0,278.31,64.69Z"></path><path class="b" d="M108.75,71.49h1.69l2.5,7.35,2.48-7.35h1.67v8.69H116V75.05c0-.17,0-.47,0-.88s0-.85,0-1.32l-2.48,7.33h-1.16l-2.51-7.33v.27c0,.21,0,.54,0,1s0,.76,0,1v5.13h-1.13Z"></path><path class="b" d="M122.51,76.35A.6.6,0,0,0,123,76a1,1,0,0,0,.07-.41.86.86,0,0,0-.39-.79,2,2,0,0,0-1.11-.25,1.41,1.41,0,0,0-1.18.45,1.54,1.54,0,0,0-.25.75h-1a1.87,1.87,0,0,1,.76-1.64,3.18,3.18,0,0,1,1.7-.46,3.46,3.46,0,0,1,1.81.43,1.44,1.44,0,0,1,.69,1.32v3.65a.45.45,0,0,0,.07.27c0,.07.14.1.29.1h.16l.19,0v.78l-.38.09-.36,0a.88.88,0,0,1-.8-.39,1.72,1.72,0,0,1-.18-.59,2.72,2.72,0,0,1-.93.74,2.92,2.92,0,0,1-1.35.32,2,2,0,0,1-1.44-.54,1.79,1.79,0,0,1-.56-1.34,1.74,1.74,0,0,1,.55-1.36,2.7,2.7,0,0,1,1.45-.6Zm-2.24,2.88a1.3,1.3,0,0,0,.8.26,2.46,2.46,0,0,0,1.09-.26,1.47,1.47,0,0,0,.89-1.41V77a1.51,1.51,0,0,1-.51.21,3.19,3.19,0,0,1-.6.12l-.64.08a2.41,2.41,0,0,0-.87.24.94.94,0,0,0-.49.89A.89.89,0,0,0,120.27,79.23Z"></path><path class="b" d="M129.72,74a3,3,0,0,1,.65.62v-3.2h1v8.72h-1V79.3a2.37,2.37,0,0,1-.88.85,2.51,2.51,0,0,1-1.16.26,2.34,2.34,0,0,1-1.82-.89,3.49,3.49,0,0,1-.78-2.37,4.12,4.12,0,0,1,.71-2.4,2.29,2.29,0,0,1,2-1A2.26,2.26,0,0,1,129.72,74Zm-2.37,4.75a1.49,1.49,0,0,0,1.38.69,1.41,1.41,0,0,0,1.2-.64,3,3,0,0,0,.48-1.82,2.7,2.7,0,0,0-.49-1.78,1.55,1.55,0,0,0-1.21-.58,1.58,1.58,0,0,0-1.29.62,2.77,2.77,0,0,0-.5,1.81A3.09,3.09,0,0,0,127.35,78.79Z"></path><path class="b" d="M133.4,73.85h1v1.09a2.51,2.51,0,0,1,.61-.78,1.6,1.6,0,0,1,1.12-.45h.1l.24,0v1.12l-.17,0h-.18a1.49,1.49,0,0,0-1.23.52,1.79,1.79,0,0,0-.44,1.19v3.64H133.4Z"></path><path class="b" d="M141.7,74a2.44,2.44,0,0,1,1,.82,2.85,2.85,0,0,1,.43,1.12,7.71,7.71,0,0,1,.09,1.4h-4.61a2.76,2.76,0,0,0,.45,1.55,1.52,1.52,0,0,0,1.31.58,1.68,1.68,0,0,0,1.32-.55,1.76,1.76,0,0,0,.39-.74h1.05a2.3,2.3,0,0,1-.27.77,2.63,2.63,0,0,1-.53.7,2.38,2.38,0,0,1-1.19.64,3.22,3.22,0,0,1-.86.1,2.65,2.65,0,0,1-2-.86,3.35,3.35,0,0,1-.82-2.41,3.64,3.64,0,0,1,.82-2.48,2.7,2.7,0,0,1,2.16-1A2.82,2.82,0,0,1,141.7,74Zm.39,2.49a3.07,3.07,0,0,0-.3-1.11,1.54,1.54,0,0,0-1.45-.77,1.6,1.6,0,0,0-1.22.53,2,2,0,0,0-.52,1.35Z"></path><path class="b" d="M152.63,73.85h1.18c-.15.4-.49,1.33-1,2.78-.39,1.09-.71,2-1,2.66a18.89,18.89,0,0,1-1.3,3,1.5,1.5,0,0,1-1.3.53l-.35,0-.3-.06v-1l.4.09.22,0a.73.73,0,0,0,.44-.1.76.76,0,0,0,.23-.24s.09-.19.21-.48l.27-.65L148,73.85h1.2l1.7,5.16Z"></path><path class="b" d="M159,71.49h1.69l2.5,7.35,2.48-7.35h1.67v8.69H166.2V75.05c0-.17,0-.47,0-.88s0-.85,0-1.32l-2.48,7.33h-1.17l-2.5-7.33v.27c0,.21,0,.54,0,1s0,.76,0,1v5.13H159Z"></path><path class="b" d="M172.74,76.35a.6.6,0,0,0,.5-.31,1,1,0,0,0,.07-.41.86.86,0,0,0-.39-.79,2,2,0,0,0-1.11-.25,1.41,1.41,0,0,0-1.18.45,1.54,1.54,0,0,0-.25.75h-1a1.87,1.87,0,0,1,.76-1.64,3.18,3.18,0,0,1,1.7-.46,3.49,3.49,0,0,1,1.81.43,1.44,1.44,0,0,1,.69,1.32v3.65a.45.45,0,0,0,.07.27c0,.07.14.1.29.1h.16l.19,0v.78l-.38.09-.36,0a.88.88,0,0,1-.8-.39,1.72,1.72,0,0,1-.18-.59,2.67,2.67,0,0,1-.94.74,2.85,2.85,0,0,1-1.34.32,2,2,0,0,1-1.44-.54,1.79,1.79,0,0,1-.56-1.34,1.74,1.74,0,0,1,.55-1.36,2.7,2.7,0,0,1,1.45-.6Zm-2.24,2.88a1.3,1.3,0,0,0,.8.26,2.49,2.49,0,0,0,1.09-.26,1.47,1.47,0,0,0,.89-1.41V77a1.51,1.51,0,0,1-.51.21,3.19,3.19,0,0,1-.6.12l-.64.08a2.41,2.41,0,0,0-.87.24,1,1,0,0,0-.5.89A.9.9,0,0,0,170.5,79.23Z"></path><path class="b" d="M180.39,74a2.44,2.44,0,0,1,1,.82,2.84,2.84,0,0,1,.42,1.12,7.71,7.71,0,0,1,.09,1.4h-4.61a2.76,2.76,0,0,0,.46,1.55,1.49,1.49,0,0,0,1.3.58,1.69,1.69,0,0,0,1.33-.55,2,2,0,0,0,.39-.74h1a2.1,2.1,0,0,1-.27.77,2.83,2.83,0,0,1-.52.7,2.42,2.42,0,0,1-1.19.64,3.35,3.35,0,0,1-.87.1,2.65,2.65,0,0,1-2-.86,3.35,3.35,0,0,1-.82-2.41,3.64,3.64,0,0,1,.83-2.48,2.67,2.67,0,0,1,2.15-1A2.89,2.89,0,0,1,180.39,74Zm.38,2.49a2.88,2.88,0,0,0-.3-1.11,1.53,1.53,0,0,0-1.45-.77,1.62,1.62,0,0,0-1.22.53,2,2,0,0,0-.52,1.35Z"></path><path class="b" d="M184.23,78.2a1.49,1.49,0,0,0,.27.81,1.75,1.75,0,0,0,1.43.52,2.16,2.16,0,0,0,1.06-.26.85.85,0,0,0,.46-.8.67.67,0,0,0-.37-.62,5.08,5.08,0,0,0-.92-.3l-.86-.21a4.64,4.64,0,0,1-1.22-.45,1.36,1.36,0,0,1-.7-1.2,1.8,1.8,0,0,1,.66-1.45,2.66,2.66,0,0,1,1.77-.56,2.47,2.47,0,0,1,2.09.84,1.8,1.8,0,0,1,.39,1.15h-1A1.13,1.13,0,0,0,187,75a1.68,1.68,0,0,0-1.3-.42,1.65,1.65,0,0,0-.94.23.7.7,0,0,0-.31.61.76.76,0,0,0,.41.66,3.19,3.19,0,0,0,.72.26l.71.17a5.2,5.2,0,0,1,1.57.54,1.43,1.43,0,0,1,.62,1.28,2,2,0,0,1-.65,1.46,2.78,2.78,0,0,1-2,.62,2.65,2.65,0,0,1-2-.65,2.33,2.33,0,0,1-.64-1.58Z"></path><path class="b" d="M190.26,72.08h1.07v1.77h1v.87h-1v4.13a.47.47,0,0,0,.23.45,1,1,0,0,0,.41.06h.17l.2,0v.84a2.12,2.12,0,0,1-.38.08,2.89,2.89,0,0,1-.43,0,1.15,1.15,0,0,1-1-.38,1.66,1.66,0,0,1-.26-1V74.72h-.86v-.87h.86Z"></path><path class="b" d="M193.83,73.85h1v1.09a2.37,2.37,0,0,1,.61-.78,1.58,1.58,0,0,1,1.12-.45h.1l.24,0v1.12l-.18,0h-.17a1.51,1.51,0,0,0-1.24.52,1.83,1.83,0,0,0-.43,1.19v3.64h-1.06Z"></path><path class="b" d="M201.61,76.35a.57.57,0,0,0,.49-.31.89.89,0,0,0,.07-.41.86.86,0,0,0-.38-.79,2,2,0,0,0-1.11-.25,1.41,1.41,0,0,0-1.18.45,1.54,1.54,0,0,0-.25.75h-1a1.87,1.87,0,0,1,.76-1.64,3.18,3.18,0,0,1,1.7-.46,3.49,3.49,0,0,1,1.81.43,1.44,1.44,0,0,1,.69,1.32v3.65a.45.45,0,0,0,.07.27c0,.07.14.1.29.1h.15l.19,0v.78a2.35,2.35,0,0,1-.37.09l-.36,0a.88.88,0,0,1-.8-.39,1.52,1.52,0,0,1-.18-.59,2.67,2.67,0,0,1-.94.74,2.85,2.85,0,0,1-1.34.32,2,2,0,0,1-1.44-.54,1.79,1.79,0,0,1-.56-1.34,1.74,1.74,0,0,1,.55-1.36,2.7,2.7,0,0,1,1.45-.6Zm-2.24,2.88a1.3,1.3,0,0,0,.8.26,2.49,2.49,0,0,0,1.09-.26,1.47,1.47,0,0,0,.89-1.41V77a1.51,1.51,0,0,1-.51.21,3.19,3.19,0,0,1-.6.12l-.64.08a2.41,2.41,0,0,0-.87.24,1,1,0,0,0-.5.89A.9.9,0,0,0,199.37,79.23Z"></path></svg> 