<?xml version="1.0" encoding="utf-8"?>
<!-- Generator: Adobe Illustrator 26.3.1, SVG Export Plug-In . SVG Version: 6.00 Build 0)  -->
<svg version="1.1" id="Layer_1" xmlns="http://www.w3.org/2000/svg" xmlns:xlink="http://www.w3.org/1999/xlink" x="0px" y="0px"
	 viewBox="0 0 283.1 94.2" enable-background="new 0 0 283.1 94.2" xml:space="preserve">
<circle fill="#FFFFFF" cx="47.2" cy="47.2" r="45.9"/>
<path fill="#B9B9B9" stroke="#000000" stroke-width="0.6" d="M47.1,0.3c-25.8,0-46.8,21-46.8,46.8s21,46.8,46.8,46.8
	s46.8-21,46.8-46.8S72.9,0.3,47.1,0.3C47.1,0.3,47.1,0.3,47.1,0.3z M47.1,84.3c-20.6,0-37.2-16.7-37.2-37.2S26.5,9.9,47.1,9.9
	s37.2,16.7,37.2,37.2c0,0,0,0,0,0C84.3,67.7,67.7,84.3,47.1,84.3C47.1,84.3,47.1,84.3,47.1,84.3L47.1,84.3z"/>
<path d="M6.7,56.1c0.2,0.2,0.4,0.4,0.4,0.7l0.2,0.6l1.1-0.3l0.1,0.6l-3,0.8l-0.3-1.3c-0.1-0.3-0.1-0.5,0.1-0.8
	c0.1-0.2,0.4-0.4,0.7-0.4C6.2,56,6.5,56,6.7,56.1z M5.7,56.9c0,0.1,0,0.2,0,0.4l0.1,0.6l0.9-0.2L6.6,57c0-0.1-0.1-0.2-0.2-0.3
	c-0.1-0.1-0.3-0.1-0.4,0C5.9,56.7,5.8,56.8,5.7,56.9L5.7,56.9z"/>
<path d="M7.1,52.2c0.3,0.2,0.5,0.6,0.5,1c0.1,0.4,0,0.8-0.2,1.1c-0.3,0.4-0.7,0.6-1.2,0.7c-0.5,0.1-1,0-1.3-0.3
	c-0.3-0.2-0.5-0.6-0.5-1c-0.1-0.4,0-0.8,0.2-1.1c0.3-0.4,0.7-0.6,1.2-0.7C6.2,51.8,6.7,51.9,7.1,52.2z M6.7,52.6
	c-0.3-0.1-0.6-0.2-0.8-0.1c-0.3,0-0.6,0.1-0.8,0.3c-0.3,0.3-0.3,0.8,0.1,1.1c0,0,0.1,0.1,0.1,0.1c0.3,0.1,0.6,0.2,0.8,0.1
	c0.3,0,0.6-0.1,0.8-0.3c0.3-0.3,0.3-0.8-0.1-1.1C6.8,52.7,6.7,52.6,6.7,52.6z"/>
<path d="M4.1,50.8v-0.7l2.1-1.3L4,48.9v-0.6l3.1-0.2v0.7L5,50.1L7.2,50v0.6L4.1,50.8z"/>
<path d="M4,44.5h0.6v0.9l2.6,0.1v0.7l-2.6-0.1V47H4V44.5z"/>
<path d="M7.3,43.1l-0.1,0.6l-3.1-0.3l0.1-0.7L7.3,43.1z"/>
<path d="M4.3,41.4l0.3-2.2l0.5,0.1L5,40.8l0.7,0.1l0.2-1.4l0.5,0.1L6.2,41l1.3,0.2l-0.1,0.6L4.3,41.4z"/>
<path d="M8.1,38.1L8,38.7L5,38l0.1-0.6L8.1,38.1z"/>
<path d="M5.8,35.9c-0.2-0.3-0.2-0.7-0.1-1c0.1-0.4,0.4-0.8,0.8-0.9c0.2-0.1,0.4-0.1,0.6,0l-0.2,0.6c-0.1,0-0.3,0-0.4,0.1
	c-0.3,0.2-0.4,0.6-0.2,1c0,0,0,0,0,0C6.5,35.8,6.8,36,7.1,36c0.3,0.1,0.5,0.1,0.8,0c0.2-0.1,0.3-0.2,0.4-0.4c0.1-0.2,0-0.4-0.1-0.6
	c-0.1-0.1-0.2-0.2-0.3-0.2l0.2-0.6c0.3,0.1,0.5,0.4,0.7,0.6c0.1,0.3,0.2,0.6,0.1,0.9c-0.1,0.4-0.4,0.7-0.7,0.9
	c-0.4,0.2-0.8,0.2-1.2,0C6.4,36.5,6,36.2,5.8,35.9z"/>
<path d="M9.7,32.8l-0.2,0.6l-2.9-1.1l0.2-0.6L9.7,32.8z"/>
<path d="M7.7,29.6L8,28.9l3.3,0.3L11,29.9l-0.7-0.1l-0.5,1l0.5,0.5l-0.3,0.6L7.7,29.6z M9.4,30.4l0.3-0.7l-1.3-0.1L9.4,30.4z"/>
<path d="M9.9,25.2l0.4-0.6l1.6,1c0.1,0.1,0.3,0.2,0.4,0.2c0.3,0,0.6-0.3,0.6-0.6c0-0.1,0-0.1,0-0.2c-0.1-0.1-0.2-0.2-0.4-0.3l-1.6-1
	l0.4-0.6l1.6,1c0.2,0.1,0.4,0.3,0.6,0.5c0.2,0.4,0.1,0.9-0.1,1.2c-0.2,0.4-0.6,0.6-1,0.7c-0.3,0-0.5-0.1-0.7-0.3L9.9,25.2z"/>
<path d="M12,21.9l0.4-0.5l2.5,0.3l-1.7-1.3l0.4-0.5l2.4,1.9l-0.4,0.5L13.1,22l1.8,1.3l-0.4,0.5L12,21.9z"/>
<path d="M17.2,20.4l-0.4,0.5l-2.3-2l0.4-0.5L17.2,20.4z"/>
<path d="M17.1,16l0.5-0.5l1.4,3L18.6,19l-3-1.5l0.5-0.5l2.1,1.2L17.1,16z"/>
<path d="M20.6,13.7l-1.3,1.1l0.4,0.5l1.1-1l0.4,0.4l-1.1,1l0.5,0.6l1.4-1.1l0.4,0.4l-1.8,1.5l-2-2.4l1.7-1.5L20.6,13.7z"/>
<path d="M23.1,11.3c0.1,0,0.2,0,0.4,0c0.1,0,0.2,0.1,0.3,0.1c0.1,0.1,0.2,0.1,0.2,0.2c0.1,0.1,0.1,0.3,0.2,0.4c0,0.2,0,0.3-0.1,0.5
	c0.1,0,0.3,0,0.4,0c0.1,0.1,0.3,0.2,0.4,0.4l0.1,0.2c0.1,0.1,0.1,0.2,0.2,0.2c0.1,0.1,0.1,0.1,0.2,0.1v0.1l-0.6,0.4l-0.1-0.1
	c-0.1-0.1-0.1-0.1-0.2-0.2l-0.2-0.2c-0.1-0.1-0.2-0.2-0.3-0.3c-0.1,0-0.3,0-0.4,0.1L23,13.5l0.7,1l-0.5,0.4l-1.8-2.5l1.2-0.9
	C22.8,11.4,22.9,11.3,23.1,11.3z M22.2,12.4l0.5,0.7l0.6-0.4c0.1-0.1,0.2-0.1,0.2-0.2c0.1-0.1,0-0.3,0-0.4c-0.1-0.1-0.2-0.2-0.4-0.2
	c-0.1,0-0.2,0.1-0.3,0.1L22.2,12.4z"/>
<path d="M26.2,11.8c0.1,0.1,0.2,0.2,0.3,0.2c0.2,0,0.4,0,0.6-0.1c0.1-0.1,0.2-0.1,0.3-0.2c0.1-0.1,0.1-0.3,0.1-0.4
	c0-0.1-0.1-0.1-0.2-0.1c-0.2,0-0.3,0-0.4,0.1l-0.3,0.1c-0.2,0.1-0.5,0.1-0.7,0.1c-0.3,0-0.5-0.1-0.6-0.4c-0.1-0.3-0.1-0.5,0-0.8
	c0.1-0.3,0.3-0.5,0.6-0.7c0.3-0.2,0.6-0.2,0.9-0.2c0.3,0,0.6,0.2,0.7,0.5l-0.5,0.3c-0.1-0.1-0.2-0.2-0.4-0.2c-0.1,0-0.3,0.1-0.4,0.1
	c-0.1,0.1-0.2,0.2-0.3,0.3c-0.1,0.1-0.1,0.2,0,0.3c0,0.1,0.1,0.2,0.2,0.1c0.1,0,0.3,0,0.4-0.1l0.5-0.2c0.2-0.1,0.4-0.1,0.6-0.1
	c0.2,0,0.4,0.2,0.6,0.4c0.1,0.2,0.2,0.5,0.1,0.8c-0.1,0.3-0.4,0.6-0.7,0.7c-0.3,0.2-0.6,0.3-1,0.2c-0.3,0-0.6-0.2-0.7-0.5L26.2,11.8
	z"/>
<path d="M29.8,10.9l-0.6,0.3l-1.4-2.8l0.6-0.3L29.8,10.9z"/>
<path d="M31.4,6.9c0.2,0,0.5,0,0.6,0.2c0.2,0.1,0.3,0.2,0.4,0.4c0.1,0.1,0.2,0.3,0.2,0.4c0.1,0.3,0.2,0.7,0.2,1.1
	c0,0.4-0.3,0.8-0.8,0.9l-1.2,0.5l-1.2-2.9L31,7C31.1,6.9,31.3,6.9,31.4,6.9z M30.5,7.8l0.8,1.9l0.6-0.2c0.3-0.1,0.4-0.4,0.4-0.7
	c0-0.2-0.1-0.4-0.1-0.6c-0.1-0.2-0.2-0.5-0.4-0.6c-0.2-0.1-0.4-0.1-0.6,0L30.5,7.8z"/>
<path d="M34.3,5.8L35,5.6l2,2.7l-0.7,0.2l-0.4-0.6l-1.1,0.3v0.7l-0.7,0.2L34.3,5.8z M34.8,7.7l0.8-0.2l-0.7-1.1L34.8,7.7z"/>
<path d="M39.1,4.6c0.2,0,0.4,0.1,0.6,0.3C39.8,5,39.9,5.2,40,5.4c0.1,0.2,0.1,0.3,0.2,0.5c0.1,0.4,0.1,0.7,0,1.1
	c-0.1,0.4-0.5,0.7-0.9,0.8L37.9,8l-0.6-3l1.3-0.3C38.7,4.7,38.9,4.6,39.1,4.6z M38,5.3l0.4,2L39,7.2c0.3,0,0.5-0.3,0.5-0.6
	c0-0.2,0-0.4,0-0.6c0-0.3-0.1-0.5-0.3-0.7c-0.2-0.1-0.4-0.2-0.6-0.1L38,5.3z"/>
<path d="M43.4,4.3c0.6-0.6,1.5-0.6,2.1,0c0,0,0,0,0,0c0.1,0.2,0.2,0.4,0.2,0.6h-0.7c0-0.1-0.1-0.2-0.1-0.3c-0.1-0.1-0.3-0.2-0.5-0.2
	c-0.2,0-0.4,0.1-0.5,0.3c-0.1,0.3-0.2,0.5-0.2,0.8c0,0.3,0,0.5,0.2,0.8c0.1,0.2,0.3,0.2,0.5,0.2c0.2,0,0.4-0.1,0.5-0.2
	c0.1-0.1,0.1-0.2,0.1-0.4l0.6-0.1c0,0.3-0.2,0.6-0.4,0.9c-0.2,0.2-0.5,0.4-0.8,0.4c-0.4,0-0.8-0.1-1.1-0.4c-0.3-0.3-0.5-0.7-0.5-1.2
	C43,5.1,43.1,4.6,43.4,4.3z"/>
<path d="M48,3.8h0.7l1,3.1H49l-0.2-0.7h-1.2l-0.2,0.6h-0.7L48,3.8z M47.9,5.7h0.8l-0.4-1.2L47.9,5.7z"/>
<path d="M53,4.2v0.6l-1-0.1l-0.3,2.5l-0.7-0.1l0.3-2.5l-0.9-0.1l0.1-0.5L53,4.2z"/>
<path d="M56,7.6c-0.7,0.4-1.5,0.2-2-0.4c-0.3-0.4-0.3-0.9-0.2-1.3c0.1-0.5,0.3-0.9,0.7-1.2c0.3-0.2,0.7-0.3,1.1-0.2
	c0.4,0,0.7,0.2,0.9,0.5c0.3,0.4,0.3,0.9,0.2,1.3C56.7,6.8,56.4,7.3,56,7.6z M55.7,7c0.2-0.2,0.3-0.5,0.4-0.8c0.1-0.3,0-0.6-0.1-0.8
	c-0.1-0.2-0.3-0.4-0.5-0.4C55.2,5,55,5,54.8,5.2c-0.2,0.2-0.3,0.5-0.4,0.8c-0.1,0.3,0,0.6,0.1,0.8C54.6,7,54.8,7.1,55,7.2
	C55.3,7.2,55.5,7.2,55.7,7z M56.4,3.7l-0.8,0.5l-0.4-0.1l0.5-0.5L56.4,3.7z"/>
<path d="M58.3,5.2L59,5.4l-0.7,2.5l1.5,0.4l-0.2,0.5l-2.1-0.6L58.3,5.2z"/>
<path d="M61.1,9.4l-0.6-0.2l1-2.9l0.6,0.2L61.1,9.4z"/>
<path d="M63.7,7.3c0.3-0.1,0.7-0.1,1,0c0.4,0.1,0.7,0.5,0.8,0.9c0.1,0.2,0.1,0.4,0,0.6l-0.6-0.3c0-0.1,0-0.3,0-0.4
	c-0.1-0.2-0.2-0.3-0.4-0.4c-0.2-0.1-0.4-0.1-0.6,0c-0.2,0.2-0.4,0.4-0.5,0.7c-0.1,0.2-0.2,0.5-0.1,0.8c0,0.2,0.2,0.4,0.4,0.4
	c0.2,0.1,0.4,0.1,0.6,0c0.1-0.1,0.2-0.2,0.3-0.3l0.6,0.3c-0.2,0.3-0.4,0.5-0.7,0.6c-0.3,0.1-0.6,0.1-0.9-0.1
	c-0.4-0.1-0.7-0.4-0.8-0.8c-0.1-0.4-0.1-0.9,0.1-1.2C62.9,7.8,63.3,7.5,63.7,7.3z"/>
<path d="M67.9,9l0.7,0.4L68,12.6l-0.6-0.4l0.1-0.7l-1-0.6L66,11.5l-0.6-0.3L67.9,9z M66.9,10.7l0.7,0.4l0.2-1.3L66.9,10.7z"/>
<path d="M73.7,12.8l0.8,0.6l-1.9,2.5l-0.5-0.4l1.3-1.7l0.2-0.2l0.2-0.2l-2,1.7l-0.5-0.4l1.1-2.4l-0.2,0.2L72,12.7l-1.3,1.7L70.2,14
	l1.9-2.5l0.8,0.6l-1,2.3L73.7,12.8z"/>
<path d="M76.3,14.9l0.6,0.5l-1.3,3L75,18l0.3-0.6l-0.8-0.8l-0.6,0.3l-0.5-0.5L76.3,14.9z M74.9,16.3l0.6,0.5l0.5-1.2L74.9,16.3z"/>
<path d="M79.7,18.5c0.1,0.2,0.1,0.4,0.1,0.6c0,0.2-0.1,0.4-0.2,0.5c-0.1,0.1-0.2,0.3-0.3,0.4c-0.3,0.3-0.6,0.4-1,0.5
	c-0.4,0.1-0.9,0-1.1-0.4l-0.9-1l2.3-2.1l0.9,1C79.5,18.2,79.6,18.3,79.7,18.5z M78.5,17.9L77,19.2l0.4,0.4c0.2,0.2,0.5,0.3,0.8,0.2
	c0.2-0.1,0.4-0.2,0.5-0.3c0.2-0.2,0.3-0.4,0.4-0.6c0-0.2,0-0.5-0.2-0.6L78.5,17.9z"/>
<path d="M82.3,21.7c0,0.1,0,0.2,0,0.4c0,0.1-0.1,0.2-0.1,0.3c-0.1,0.1-0.1,0.2-0.2,0.2c-0.1,0.1-0.3,0.2-0.4,0.2
	c-0.2,0-0.3,0-0.5-0.1c0,0.1,0,0.3,0,0.4c-0.1,0.1-0.2,0.3-0.3,0.4l-0.2,0.1c-0.1,0.1-0.2,0.1-0.2,0.2c-0.1,0.1-0.1,0.1-0.1,0.2
	h-0.1l-0.4-0.6l0.1-0.1c0.1-0.1,0.1-0.1,0.2-0.2l0.2-0.2c0.2-0.1,0.2-0.2,0.2-0.3c0-0.1,0-0.3-0.1-0.4L80,21.7l-1,0.7l-0.4-0.5
	l2.5-1.9l0.9,1.2C82.1,21.4,82.2,21.5,82.3,21.7z M81.1,20.9l-0.7,0.5l0.4,0.6c0.1,0.1,0.1,0.2,0.2,0.2c0.1,0.1,0.3,0,0.4-0.1
	c0.1-0.1,0.2-0.2,0.2-0.4c0-0.1-0.1-0.2-0.1-0.3L81.1,20.9z"/>
<path d="M84.2,25.5l-0.9-1.4l-0.6,0.4l0.8,1.3L83.1,26l-0.8-1.3l-0.7,0.4l0.9,1.5l-0.5,0.3l-1.2-2l2.6-1.6l1.2,1.9L84.2,25.5z"/>
<path d="M87,29.7l0.3,0.7l-2.2-0.1L84,30.8l-0.3-0.6l1.1-0.5l1.3-1.8l0.3,0.7l-1,1.1H87z"/>
<path d="M89,35.3l0.3,0.9l-3,0.9l-0.2-0.6l2-0.6l0.2-0.1l0.2-0.1L85.9,36l-0.2-0.6l2.3-1.4l-0.2,0.1l-0.2,0.1l-2,0.6l-0.2-0.6l3-0.9
	l0.3,0.9l-2.2,1.2L89,35.3z"/>
<path d="M89.8,38.5l0.1,0.7l-2.8,1.7l-0.1-0.7l0.6-0.3l-0.2-1.1l-0.7-0.1L86.5,38L89.8,38.5z M87.8,38.8l0.2,0.8l1.1-0.6L87.8,38.8z
	"/>
<path d="M90,43.9l-0.2-1.6l-0.7,0.1l0.2,1.5l-0.5,0.1l-0.2-1.5l-0.8,0.1l0.2,1.7l-0.6,0.1l-0.2-2.3l3.1-0.3l0.2,2.3L90,43.9z"/>
<path d="M88.4,45.8c-0.1,0-0.2,0.1-0.3,0.1c-0.1,0.2-0.2,0.4-0.2,0.6c0,0.1,0,0.3,0.1,0.4c0,0.2,0.2,0.3,0.4,0.3
	c0.1,0,0.2,0,0.2-0.1c0.1-0.1,0.1-0.3,0.1-0.4l0.1-0.3c0-0.2,0.1-0.5,0.2-0.7c0.1-0.2,0.4-0.3,0.7-0.3c0.3,0,0.5,0.1,0.7,0.3
	c0.2,0.3,0.3,0.6,0.3,0.9c0,0.3-0.1,0.6-0.2,0.8c-0.2,0.2-0.5,0.4-0.8,0.4V47c0.2,0,0.3-0.1,0.4-0.3c0.1-0.1,0.1-0.3,0.1-0.4
	c0-0.1-0.1-0.3-0.2-0.4c-0.1-0.1-0.2-0.2-0.3-0.2c-0.1,0-0.2,0.1-0.2,0.2c-0.1,0.1-0.1,0.3-0.1,0.4L89.2,47c0,0.2-0.1,0.4-0.2,0.5
	c-0.1,0.2-0.4,0.3-0.6,0.3c-0.3,0-0.5-0.1-0.7-0.3c-0.2-0.3-0.3-0.6-0.3-0.9c0-0.4,0.1-0.7,0.3-1c0.2-0.2,0.5-0.4,0.8-0.4L88.4,45.8
	z"/>
<path d="M90.4,51.3h-0.6l0.1-0.9l-2.6-0.2v-0.7l2.6,0.2l0.1-0.9h0.6L90.4,51.3z"/>
<path d="M89.9,54.4c-0.1,0.1-0.2,0.2-0.3,0.3c-0.1,0.1-0.2,0.1-0.3,0.1c-0.1,0-0.2,0-0.3,0c-0.1,0-0.3-0.1-0.4-0.2
	c-0.1-0.1-0.2-0.3-0.2-0.4c-0.1,0.1-0.2,0.2-0.3,0.3c-0.2,0-0.3,0-0.5,0h-0.2c-0.1,0-0.2,0-0.3,0c-0.1,0-0.2,0-0.2,0.1h-0.1l0.1-0.7
	h0.2h0.3h0.3c0.1,0.1,0.3,0.1,0.4,0c0.1-0.1,0.1-0.2,0.2-0.3l0.1-0.6l-1.2-0.2l0.1-0.6l3.1,0.5L90.1,54C90,54.2,90,54.3,89.9,54.4z
	 M89.7,53l-0.8-0.1l-0.1,0.7c0,0.1,0,0.2,0,0.3c0,0.1,0.2,0.2,0.3,0.2c0.1,0,0.3,0,0.4-0.1c0.1-0.1,0.1-0.2,0.1-0.3L89.7,53z"/>
<path d="M89.4,57.3L89.2,58L86,58.3l0.2-0.7h0.7l0.3-1.1l-0.6-0.3l0.2-0.7L89.4,57.3z M87.5,56.8l-0.2,0.8l1.3-0.1L87.5,56.8z"/>
<path d="M20.1,77.3c0,0.1,0.1,0.2,0.1,0.4c0,0.1,0,0.2-0.1,0.3c0,0.1-0.1,0.2-0.2,0.3c-0.1,0.1-0.2,0.2-0.4,0.2
	c-0.2,0.1-0.3,0.1-0.5,0c0.1,0.1,0.1,0.3,0.1,0.4c-0.1,0.2-0.1,0.3-0.3,0.4l-0.1,0.2c-0.1,0.1-0.1,0.1-0.2,0.2c0,0.1,0,0.1,0,0.2h0
	L18,79.4c0-0.1,0-0.1,0.1-0.2c0-0.1,0.1-0.1,0.2-0.2l0.2-0.2c0.1-0.1,0.2-0.3,0.2-0.3s-0.1-0.2-0.2-0.3L18,77.7l-0.8,0.9l-0.5-0.4
	l2.1-2.3l1.1,1C20,77,20.1,77.1,20.1,77.3z M18.8,76.7l-0.6,0.6l0.5,0.5c0.1,0.1,0.2,0.1,0.3,0.2c0.1,0,0.3,0,0.4-0.1
	c0.1-0.1,0.2-0.3,0.1-0.4c0-0.1-0.1-0.2-0.2-0.2L18.8,76.7z"/>
<path d="M22.9,80.2l-1.3-1l-0.4,0.5l1.2,0.9L22.1,81l-1.2-0.9l-0.5,0.6l1.4,1l-0.3,0.4l-1.9-1.4l1.9-2.4l1.8,1.4L22.9,80.2z"/>
<path d="M25,83c-0.3,0-0.5-0.1-0.8-0.2l-0.5-0.3l-0.6,0.9L22.5,83l1.7-2.6l1.1,0.7c0.2,0.1,0.4,0.3,0.5,0.6c0.1,0.3,0,0.6-0.2,0.8
	C25.5,82.7,25.3,82.9,25,83z M25.2,81.8c0-0.1-0.1-0.2-0.2-0.3l-0.5-0.3L24,82l0.5,0.3c0.1,0.1,0.2,0.1,0.4,0.1
	c0.1,0,0.2-0.1,0.3-0.2C25.2,82,25.2,81.9,25.2,81.8L25.2,81.8z"/>
<path d="M27.1,82.2l0.6,0.3l-0.9,1.7c-0.1,0.1-0.1,0.3-0.1,0.4c0,0.2,0.1,0.4,0.3,0.5c0.2,0.1,0.4,0.1,0.6,0
	c0.1-0.1,0.2-0.2,0.3-0.4l0.9-1.7l0.6,0.3L28.4,85c-0.1,0.2-0.3,0.4-0.5,0.6c-0.4,0.2-0.8,0.2-1.2-0.1c-0.4-0.2-0.7-0.6-0.7-1
	c0-0.3,0.1-0.5,0.2-0.8L27.1,82.2z M29.2,82.3l-0.9,0.3L28,82.4l0.6-0.4L29.2,82.3z"/>
<path d="M32.3,85.1c0.1,0.2,0.1,0.3,0,0.5c-0.1,0.2-0.2,0.3-0.3,0.4c-0.1,0-0.2,0.1-0.3,0.1c0.1,0.1,0.2,0.2,0.2,0.4
	c0,0.2,0,0.3-0.1,0.5c-0.1,0.2-0.2,0.3-0.3,0.4c-0.1,0.1-0.2,0.1-0.3,0.1c-0.1,0-0.3,0-0.4,0c-0.1,0-0.3-0.1-0.4-0.1l-1.3-0.5
	l1.2-2.8l1.4,0.6C32,84.5,32.2,84.8,32.3,85.1z M30.2,85.7l-0.3,0.8l0.7,0.3c0.1,0.1,0.2,0.1,0.3,0.1c0.2,0,0.3-0.1,0.3-0.3
	c0.1-0.1,0-0.3,0-0.4C31.1,86.1,31,86,30.9,86L30.2,85.7z M30.7,84.6l-0.3,0.6l0.7,0.3c0.1,0.1,0.2,0.1,0.3,0.1
	c0.1,0,0.2-0.1,0.2-0.2c0.1-0.1,0-0.2,0-0.3c-0.1-0.1-0.2-0.1-0.3-0.2L30.7,84.6z"/>
<path d="M33.7,85.2l0.6,0.2l-0.8,2.4l1.5,0.5l-0.2,0.5l-2.1-0.7L33.7,85.2z"/>
<path d="M36.6,89.3L36,89.1l0.8-3l0.6,0.2L36.6,89.3z"/>
<path d="M38.7,87c0.7-0.4,1.6-0.2,2,0.5c0,0,0,0,0,0.1c0.1,0.2,0.1,0.4,0.1,0.6L40.2,88c0-0.1,0-0.2-0.1-0.4
	c-0.1-0.2-0.3-0.3-0.5-0.3c-0.2,0-0.4,0-0.6,0.2c-0.2,0.2-0.3,0.5-0.3,0.8c-0.1,0.3-0.1,0.5,0.1,0.8c0.1,0.2,0.3,0.3,0.5,0.4
	c0.2,0,0.4,0,0.5-0.1c0.1-0.1,0.1-0.2,0.2-0.3l0.6,0.1c-0.1,0.3-0.3,0.6-0.6,0.7c-0.3,0.2-0.6,0.2-0.9,0.2c-0.4,0-0.8-0.3-1-0.6
	C38,89,37.9,88.6,38,88.2C38.1,87.7,38.3,87.3,38.7,87z"/>
<path d="M43,87.3l0.7,0.1l0.8,3.2l-0.7-0.1l-0.2-0.7l-1.2-0.1l-0.3,0.6l-0.7-0.1L43,87.3z M42.8,89.2l0.8,0.1L43.2,88L42.8,89.2z"/>
<path d="M49.2,87.5c0.2,0.1,0.4,0.2,0.5,0.4c0.1,0.1,0.2,0.3,0.2,0.5c0,0.2,0.1,0.3,0.1,0.5c0,0.4-0.1,0.7-0.2,1.1
	c-0.2,0.4-0.6,0.6-1,0.6h-1.3l-0.1-3.1l1.3-0.1C48.8,87.4,49,87.5,49.2,87.5z M48,88l0.1,2h0.6c0.3,0,0.5-0.2,0.6-0.5
	c0.1-0.2,0.1-0.4,0.1-0.6c0-0.3-0.1-0.5-0.2-0.7C49,88,48.8,88,48.6,88L48,88z"/>
<path d="M53.7,89.8c-0.2,0.3-0.6,0.5-1,0.5c-0.4,0.1-0.7,0-1-0.2c-0.4-0.3-0.6-0.7-0.6-1.2c-0.1-0.5,0-1,0.3-1.3
	c0.2-0.3,0.6-0.5,1-0.5c0.3-0.1,0.7,0,1,0.2c0.4,0.3,0.6,0.7,0.6,1.2C54.1,88.9,54,89.4,53.7,89.8z M53.3,89.4
	c0.1-0.3,0.2-0.5,0.1-0.8c0-0.3-0.1-0.6-0.3-0.8c-0.2-0.2-0.4-0.2-0.6-0.2c-0.2,0-0.4,0.2-0.6,0.4c-0.1,0.3-0.2,0.5-0.1,0.8
	c0,0.3,0.1,0.6,0.3,0.8C52.4,89.8,52.9,89.8,53.3,89.4C53.2,89.5,53.2,89.4,53.3,89.4z"/>
<path d="M56.8,86.3l0.9-0.2l0.7,3l-0.6,0.1l-0.5-2c0-0.1,0-0.1,0-0.2s0-0.2-0.1-0.2v2.7l-0.6,0.1l-1.2-2.4c0,0.1,0,0.1,0,0.2
	s0,0.2,0.1,0.2l0.5,2l-0.6,0.1l-0.7-3l0.9-0.2l1.1,2.2L56.8,86.3z"/>
<path d="M60.3,88.5l-0.6,0.2l-0.9-3l0.6-0.2L60.3,88.5z"/>
<path d="M60.5,85.2l0.6-0.2l1.9,1.6l-0.8-2l0.6-0.2l1.1,2.9l-0.6,0.2l-2-1.6l0.8,2l-0.6,0.2L60.5,85.2z"/>
<path d="M65.8,86.4l-0.6,0.3l-1.3-2.8l0.6-0.3L65.8,86.4z"/>
<path d="M65.9,83.2c0.1-0.3,0.3-0.6,0.7-0.8c0.4-0.2,0.8-0.3,1.2-0.1c0.2,0.1,0.4,0.2,0.5,0.4L67.7,83c-0.1-0.1-0.2-0.2-0.3-0.2
	c-0.2-0.1-0.4,0-0.5,0.1c-0.2,0.1-0.3,0.3-0.3,0.5c0,0.3,0.1,0.6,0.2,0.8c0.1,0.3,0.3,0.5,0.6,0.6c0.2,0.1,0.4,0.1,0.6,0
	c0.2-0.1,0.3-0.2,0.3-0.4c0-0.1,0-0.3,0-0.4l0.6-0.3c0.1,0.3,0.1,0.6,0,0.9c-0.3,0.7-1,1-1.7,0.8c-0.4-0.2-0.7-0.5-0.9-0.8
	C65.9,84.2,65.8,83.7,65.9,83.2z"/>
<path d="M69.4,80.8l0.6-0.4l2.6,1.9l-0.6,0.4l-0.5-0.4l-0.9,0.6l0.2,0.6l-0.6,0.4L69.4,80.8z M70.4,82.4l0.7-0.4l-1-0.8L70.4,82.4z"
	/>
<path d="M71.7,79.2l0.5-0.4l2.3,0.9L73.1,78l0.5-0.4l2,2.4l-0.5,0.4l-2.4-0.9l1.4,1.7l-0.5,0.4L71.7,79.2z"/>
<path d="M75.1,76.2l0.5-0.5l2.9,1.4L78,77.6l-0.6-0.3l-0.8,0.8l0.3,0.6l-0.5,0.5L75.1,76.2z M76.4,77.6l0.6-0.6l-1.1-0.6L76.4,77.6z
	"/>
<path d="M30,20.3h0.5l-0.8,2.3h-0.5l-0.8-2.3H29l0.5,1.8L30,20.3z"/>
<path d="M32.7,20.7h-1.2v0.5h1.1v0.4h-1.1v0.6h1.3v0.4H31v-2.3h1.7L32.7,20.7z"/>
<path d="M34.7,20.3c0.1,0,0.2,0.1,0.2,0.2c0,0.1,0.1,0.1,0.1,0.2c0,0.1,0,0.2,0,0.2c0,0.1,0,0.2-0.1,0.3c-0.1,0.1-0.2,0.2-0.3,0.2
	c0.1,0,0.2,0.1,0.2,0.2C35,21.8,35,21.9,35,22v0.2c0,0.1,0,0.1,0,0.2c0,0.1,0,0.1,0.1,0.1v0.1h-0.5c0,0,0-0.1,0-0.1
	c0-0.1,0-0.1,0-0.2V22c0-0.1,0-0.2-0.1-0.3c-0.1-0.1-0.2-0.1-0.3-0.1h-0.5v0.9h-0.5v-2.3h1.1C34.5,20.3,34.6,20.3,34.7,20.3z
	 M33.7,20.7v0.6h0.5c0.1,0,0.2,0,0.2,0c0.1,0,0.2-0.2,0.1-0.3c0-0.1,0-0.2-0.1-0.3c-0.1,0-0.2,0-0.2,0L33.7,20.7z"/>
<path d="M36.2,22.6h-0.5v-2.3h0.5V22.6z"/>
<path d="M38.4,20.3v0.4h-0.7v1.9h-0.5v-1.9h-0.7v-0.4H38.4z"/>
<path d="M39.3,20.3h0.5l0.8,2.3h-0.5L40,22.1h-0.8L39,22.6h-0.5L39.3,20.3z M39.3,21.7h0.6l-0.3-0.9L39.3,21.7z"/>
<path d="M41.4,21.9c0,0.1,0,0.2,0.1,0.2c0.1,0.1,0.3,0.2,0.4,0.1c0.1,0,0.2,0,0.3,0c0.1,0,0.2-0.1,0.2-0.3c0-0.1,0-0.1-0.1-0.2
	c-0.1-0.1-0.2-0.1-0.3-0.1l-0.2-0.1c-0.2,0-0.4-0.1-0.5-0.2C41.1,21.3,41,21.2,41,21c0-0.2,0.1-0.4,0.2-0.5c0.2-0.2,0.4-0.2,0.7-0.2
	c0.2,0,0.4,0.1,0.6,0.2c0.2,0.1,0.3,0.3,0.3,0.6h-0.5c0-0.1-0.1-0.2-0.2-0.3c-0.1,0-0.2-0.1-0.3-0.1c-0.1,0-0.2,0-0.3,0.1
	c-0.1,0-0.1,0.1-0.1,0.2c0,0.1,0,0.2,0.1,0.2c0.1,0,0.2,0.1,0.3,0.1l0.4,0.1c0.1,0,0.3,0.1,0.4,0.2c0.1,0.1,0.2,0.3,0.2,0.5
	c0,0.2-0.1,0.4-0.2,0.5c-0.2,0.2-0.4,0.2-0.7,0.2c-0.3,0-0.5-0.1-0.7-0.2c-0.2-0.1-0.3-0.3-0.3-0.6L41.4,21.9z"/>
<path d="M46.1,20.7h-1.2v0.5H46v0.4h-1.1v0.6h1.3v0.4h-1.7v-2.3h1.7V20.7z"/>
<path d="M48.4,20.3v0.4h-0.7v1.9h-0.5v-1.9h-0.7v-0.4H48.4z"/>
<path d="M50.2,21.9c0,0.1,0,0.2,0.1,0.2c0.1,0.1,0.3,0.2,0.4,0.1c0.1,0,0.2,0,0.3,0c0.1,0,0.2-0.1,0.2-0.3c0-0.1,0-0.1-0.1-0.2
	c-0.1-0.1-0.2-0.1-0.3-0.1l-0.2-0.1c-0.2,0-0.3-0.1-0.5-0.2c-0.2-0.1-0.2-0.3-0.2-0.5c0-0.2,0.1-0.4,0.2-0.5
	c0.2-0.1,0.4-0.2,0.7-0.2c0.2,0,0.4,0.1,0.6,0.2c0.2,0.1,0.3,0.3,0.3,0.6h-0.5c0-0.1-0.1-0.2-0.2-0.3c-0.1,0-0.2-0.1-0.3-0.1
	c-0.1,0-0.2,0-0.3,0.1c-0.1,0-0.1,0.1-0.1,0.2c0,0.1,0,0.1,0.1,0.2c0.1,0,0.2,0.1,0.3,0.1l0.4,0.1c0.1,0,0.3,0.1,0.4,0.2
	c0.1,0.1,0.2,0.3,0.2,0.5c0,0.2-0.1,0.4-0.2,0.5c-0.2,0.2-0.4,0.2-0.7,0.2c-0.3,0-0.5-0.1-0.7-0.2c-0.2-0.1-0.3-0.3-0.3-0.6
	L50.2,21.9z"/>
<path d="M52.4,20.5c0.2-0.2,0.4-0.3,0.7-0.3c0.3,0,0.6,0.1,0.8,0.4c0.1,0.1,0.1,0.3,0.2,0.4h-0.5c0-0.1-0.1-0.2-0.1-0.2
	c-0.2-0.2-0.5-0.2-0.7,0c0,0,0,0,0,0.1c-0.1,0.2-0.2,0.4-0.2,0.6c0,0.2,0,0.4,0.2,0.6c0.1,0.1,0.2,0.2,0.4,0.2
	c0.1,0,0.3-0.1,0.4-0.2c0.1-0.1,0.1-0.2,0.1-0.3h0.5c0,0.2-0.1,0.5-0.3,0.6c-0.2,0.2-0.4,0.2-0.7,0.2c-0.3,0-0.6-0.1-0.8-0.3
	C52,21.8,52,21,52.4,20.5L52.4,20.5z"/>
<path d="M55.1,22.6h-0.5v-2.3h0.5V22.6z"/>
<path d="M57.4,20.7h-1.2v0.5h1.1v0.4h-1.1v0.6h1.3v0.4h-1.7v-2.3h1.7V20.7z"/>
<path d="M58,20.3h0.5l0.9,1.6v-1.6h0.5v2.3h-0.5l-0.9-1.6v1.6H58V20.3z"/>
<path d="M62.1,20.3v0.4h-0.7v1.9h-0.5v-1.9h-0.7v-0.4H62.1z"/>
<path d="M63,22.6h-0.5v-2.3H63V22.6z"/>
<path d="M64.2,20.3h0.6l0.8,2.3h-0.5l-0.2-0.5h-0.8l-0.2,0.5h-0.5L64.2,20.3z M64.2,21.7h0.6l-0.3-0.9L64.2,21.7z"/>
<path d="M42.9,80.4v-0.3h0.3c0.1,0,0.2-0.1,0.2-0.1c0,0,0.1-0.1,0.1-0.2c0,0,0-0.1,0-0.1h0.4V82h-0.5v-1.6H42.9z"/>
<path d="M45.3,79.9c0.1-0.2,0.3-0.2,0.5-0.2c0.3,0,0.6,0.2,0.7,0.5c0.1,0.2,0.1,0.4,0.1,0.7c0,0.2,0,0.5-0.1,0.7
	c-0.1,0.3-0.4,0.5-0.7,0.5c-0.2,0-0.3-0.1-0.5-0.2c-0.1-0.1-0.2-0.3-0.2-0.4h0.5c0,0.1,0,0.1,0.1,0.2c0.1,0,0.1,0.1,0.2,0.1
	c0.1,0,0.3-0.1,0.3-0.2c0-0.1,0.1-0.3,0.1-0.4c0,0-0.1,0.1-0.1,0.1c-0.1,0.1-0.2,0.1-0.3,0.1c-0.2,0-0.4-0.1-0.5-0.2
	c-0.1-0.1-0.2-0.3-0.2-0.5C45.1,80.2,45.2,80,45.3,79.9z M46,80.8c0.1-0.1,0.2-0.2,0.2-0.3c0-0.1,0-0.2-0.1-0.3
	C46,80.1,46,80,45.9,80c-0.1,0-0.1,0-0.2,0.1c-0.1,0.1-0.1,0.2-0.1,0.3c0,0.1,0,0.2,0.1,0.3c0.1,0.1,0.2,0.1,0.2,0.1
	C45.9,80.8,46,80.8,46,80.8z"/>
<path d="M48.5,80.2c0,0,0-0.1,0-0.1c0-0.1-0.1-0.1-0.2-0.1c-0.1,0-0.3,0.1-0.3,0.2c0,0.1-0.1,0.3-0.1,0.4c0.1-0.1,0.1-0.1,0.2-0.1
	c0.1,0,0.2-0.1,0.2-0.1c0.2,0,0.4,0.1,0.5,0.2C49,80.8,49,81,49,81.2c0,0.2-0.1,0.4-0.2,0.6c-0.1,0.2-0.4,0.3-0.6,0.2
	c-0.3,0-0.5-0.1-0.6-0.4c-0.1-0.2-0.2-0.5-0.2-0.7c0-0.2,0-0.3,0-0.4c0-0.2,0.1-0.3,0.1-0.5c0.1-0.1,0.2-0.2,0.3-0.3
	c0.1-0.1,0.2-0.1,0.4-0.1c0.2,0,0.4,0,0.5,0.2c0.1,0.1,0.2,0.3,0.2,0.4L48.5,80.2z M48,81.5c0.1,0.1,0.2,0.1,0.2,0.1
	c0.1,0,0.2,0,0.2-0.1c0.1-0.1,0.1-0.2,0.1-0.3c0-0.1,0-0.2-0.1-0.3c-0.1-0.1-0.1-0.1-0.2-0.1c-0.1,0-0.1,0-0.2,0.1
	c-0.1,0.1-0.1,0.2-0.1,0.3C47.9,81.3,47.9,81.4,48,81.5z"/>
<path d="M49.9,81.5c0.1-0.2,0.3-0.4,0.5-0.5c0.1-0.1,0.3-0.2,0.4-0.3c0.1-0.1,0.1-0.2,0.1-0.3c0-0.1,0-0.2-0.1-0.2
	c-0.1-0.1-0.1-0.1-0.2-0.1c-0.1,0-0.2,0.1-0.3,0.2c0,0.1,0,0.2,0,0.3h-0.4c0-0.2,0-0.3,0.1-0.5c0.1-0.2,0.4-0.4,0.6-0.3
	c0.2,0,0.4,0.1,0.6,0.2c0.1,0.1,0.2,0.3,0.2,0.5c0,0.2-0.1,0.3-0.2,0.4c-0.1,0.1-0.2,0.2-0.3,0.3l-0.2,0.1l-0.2,0.2
	c0,0-0.1,0.1-0.1,0.1h1v0.4h-1.6C49.8,81.8,49.8,81.6,49.9,81.5z"/>
<path fill="#FFFFFF" d="M65.5,23.5v34.6c0,11.3-12,18.9-18.2,18.9c-5.3,0-18.7-7.5-18.7-19.2V23.5H65.5z"/>
<g>
	<defs>
		<path id="SVGID_1_" d="M65.5,23.5v34.6c0,11.3-12,18.9-18.2,18.9c-5.3,0-18.7-7.5-18.7-19.2V23.5H65.5z"/>
	</defs>
	<clipPath id="SVGID_00000041987188117258246940000016157845541955662466_">
		<use xlink:href="#SVGID_1_"  overflow="visible"/>
	</clipPath>
	<g clip-path="url(#SVGID_00000041987188117258246940000016157845541955662466_)">
		<path fill-rule="evenodd" clip-rule="evenodd" fill="#F4D500" d="M37.7,37.9l-0.1,35c-8.9-6-9-13.2-9-15.2V37.9H37.7z"/>
		<rect x="28.6" y="23.5" fill="#B92C32" width="36.9" height="14.5"/>
		<path fill-rule="evenodd" clip-rule="evenodd" fill="#B92C32" d="M47.3,60.4v-1.5h18.2C65,69.8,53.3,77,47.3,77V60.4z"/>
		<rect x="47.3" y="37.9" fill="#00369C" width="18.2" height="18.2"/>
		<line fill="none" stroke="#000101" stroke-width="0.4" x1="28.7" y1="37.9" x2="65.6" y2="37.9"/>
		<line fill="none" stroke="#000101" stroke-width="0.4" x1="47.3" y1="37.9" x2="47.3" y2="77"/>
		<line fill="none" stroke="#000101" stroke-width="0.4" x1="47.4" y1="56.1" x2="65.5" y2="56.1"/>
		<line fill="none" stroke="#000101" stroke-width="0.4" x1="47.3" y1="58.8" x2="65.5" y2="58.8"/>
	</g>
</g>
<path fill="none" stroke="#000101" stroke-width="0.4" d="M65.5,23.5v34.6c0,11.3-12,18.9-18.2,18.9c-5.3,0-18.7-7.5-18.7-19.2V23.5
	H65.5z"/>
<line fill="none" stroke="#000101" stroke-width="0.4" stroke-miterlimit="3.86" x1="37.8" y1="68.7" x2="37.8" y2="73.2"/>
<path fill-rule="evenodd" clip-rule="evenodd" fill="#B92C32" stroke="#000101" stroke-width="0.4" stroke-miterlimit="3.86" d="
	M37.8,41.8l-0.6,0.8c-0.7,0.4-1.2,1.1-1.5,1.9c-0.1,0.5-0.1,1-0.1,1.5h1.2v1.7h-1.7c-0.3-0.1-0.4-0.4-0.3-0.7c0-0.2,0.1-0.3,0.3-0.4
	c-0.6-0.2-1.2,0-1.5,0.5c-0.2,0.3-0.2,0.7-0.1,1c-0.4,0-0.8,0.2-1.1,0.4c-0.2,0.1-0.4,0.3-0.6,0.5c0.1,0.2,0.3,0.4,0.6,0.6
	c0.3,0.3,0.7,0.4,1.1,0.4c-0.1,0.3-0.1,0.7,0.1,1c0.3,0.5,0.9,0.8,1.5,0.5c-0.2-0.1-0.3-0.2-0.3-0.4c-0.1-0.3,0.1-0.6,0.3-0.7h1.7
	V53h-2.1l3.1,15.7L40.9,53h-2.1v-2.6h1.7c0.3,0.1,0.4,0.4,0.3,0.7c0,0.2-0.1,0.3-0.3,0.4c0.6,0.2,1.2,0,1.5-0.5
	c0.2-0.3,0.2-0.7,0.1-1c0.7,0,1.3-0.4,1.7-1c-0.1-0.2-0.3-0.4-0.6-0.5c-0.3-0.3-0.7-0.4-1.1-0.5c0.1-0.3,0.1-0.7-0.1-1
	c-0.3-0.5-0.9-0.8-1.5-0.5c0.2,0.1,0.3,0.2,0.3,0.4c0.1,0.3-0.1,0.6-0.3,0.7h-1.6v-1.7H40c0-0.5,0-1-0.1-1.5
	c-0.2-0.8-0.7-1.5-1.5-1.9L37.8,41.8z"/>
<line fill="none" stroke="#000101" stroke-width="0.4" stroke-miterlimit="3.86" x1="37.8" y1="41.8" x2="37.8" y2="38"/>
<path fill-rule="evenodd" clip-rule="evenodd" fill="#F4D500" stroke="#000000" stroke-width="0.4" stroke-miterlimit="3.86" d="
	M39.4,33.5l23-8.8l0.4,0.9l-23.1,8.7c1,0.2,1.5,2.1,0.3,2.6c-1.8,0.8-2.2-1.1-1.8-2c0,1.2-2,2.5-2.9,0.7s1.7-2.5,2.5-1.7
	c-0.8-0.4-1.1-1.3-0.7-2.1c0.2-0.3,0.4-0.6,0.7-0.7C39.5,30.4,40,32.6,39.4,33.5z"/>
<polygon fill-rule="evenodd" clip-rule="evenodd" fill="#F4D500" stroke="#000000" stroke-width="0.4" stroke-miterlimit="3.86" points="
	60.5,26.4 61.8,28.1 62.2,29.1 61.5,29.4 61.1,28.3 60.5,28.6 60.9,29.6 60.2,29.9 59.8,28.9 59.1,29.2 59.4,30.2 58.7,30.5 
	58.3,29.5 57.7,29.7 58,30.7 57.4,30.9 57,29.8 56.7,27.9 "/>
<path fill="#FFFFFF" stroke="#000000" stroke-width="0.4" d="M54.4,33.5l-23-8.8L31,25.6l23.1,8.7c-1,0.2-1.4,2.1-0.3,2.6
	c1.8,0.8,2.2-1.1,1.8-2c0,1.2,2,2.5,2.9,0.7S56.8,33,56,33.9c0.8-0.4,1.1-1.3,0.7-2.1c-0.2-0.3-0.4-0.6-0.7-0.7
	C54.3,30.4,53.8,32.6,54.4,33.5z"/>
<polygon fill="#FFFFFF" stroke="#000000" stroke-width="0.4" points="33.2,26.4 32,28.1 31.6,29.1 32.3,29.4 32.7,28.3 33.3,28.6 
	32.9,29.6 33.6,29.9 34,28.9 34.7,29.2 34.3,30.2 35.1,30.5 35.5,29.5 36.1,29.7 35.8,30.7 36.3,30.9 36.8,29.8 37.1,27.9 "/>
<polygon fill-rule="evenodd" clip-rule="evenodd" fill="#F1E438" stroke="#000000" stroke-width="0.4" stroke-miterlimit="3.86" points="
	46.8,27.7 46.8,26.8 46.1,26.8 46.1,26.1 46.8,26.1 46.8,25.5 47.5,25.5 47.5,26.1 48.2,26.1 48.2,26.8 47.5,26.8 47.5,27.7 "/>
<path fill-rule="evenodd" clip-rule="evenodd" fill="#F4D500" stroke="#000000" stroke-width="0.4" stroke-miterlimit="3.86" d="
	M44.1,35.5l-1-6.1l-0.3-1.6c0.2-0.1,0.5,0.8,0.6,0.8c1.2-0.5,2.5-0.8,3.8-0.7c1.3-0.1,2.6,0.2,3.7,0.7c0.2,0.1,0.4-0.8,0.6-0.7
	l-1.2,7.7C48.4,34.6,46.1,34.6,44.1,35.5z"/>
<path fill="none" stroke="#000000" stroke-width="0.4" stroke-miterlimit="3.86" d="M51.2,30.3c-1.3-0.6-2.6-0.9-4-1
	c-1.4,0-2.7,0.3-4,0.9"/>
<polyline fill="none" stroke="#000101" stroke-width="0.4" stroke-miterlimit="3.86" points="44.1,29.9 43.8,29.3 44,28.7 44.6,29 
	44.8,29.6 "/>
<polyline fill="none" stroke="#000101" stroke-width="0.4" stroke-miterlimit="3.86" points="45.7,29.4 45.7,28.8 46,28.2 
	46.6,28.7 46.7,29.3 "/>
<polyline fill="none" stroke="#000101" stroke-width="0.4" stroke-miterlimit="3.86" points="47.6,29.3 47.7,28.7 48.2,28.2 
	48.6,28.9 48.5,29.5 "/>
<polyline fill="none" stroke="#000101" stroke-width="0.4" stroke-miterlimit="3.86" points="49.4,29.5 49.6,29 50.2,28.7 
	50.4,29.3 50.2,29.9 "/>
<path fill="none" stroke="#000000" stroke-width="0.4" stroke-miterlimit="3.86" d="M50.7,33c-1.1-0.5-2.3-0.8-3.6-0.8
	c-1.2,0-2.3,0.3-3.4,0.7"/>
<polyline fill="none" stroke="#000101" stroke-width="0.4" stroke-miterlimit="3.86" points="49.8,32.5 50.1,31.6 50.7,30.9 
	50.9,31.9 50.6,32.8 "/>
<polyline fill="none" stroke="#000101" stroke-width="0.4" stroke-miterlimit="3.86" points="48.3,32.2 48.5,31.3 49.2,30.5 
	49.4,31.5 49.2,32.4 "/>
<polyline fill="none" stroke="#000101" stroke-width="0.4" stroke-miterlimit="3.86" points="46.8,32.1 46.8,31.2 47.3,30.3 
	47.7,31.2 47.7,32.2 "/>
<polyline fill="none" stroke="#000101" stroke-width="0.4" stroke-miterlimit="3.86" points="45.3,32.3 45.2,31.4 45.4,30.4 
	46.1,31.2 46.2,32.2 "/>
<polyline fill="none" stroke="#000101" stroke-width="0.4" stroke-miterlimit="3.86" points="43.8,32.7 43.6,31.8 43.7,30.8 
	44.4,31.6 44.7,32.5 "/>
<polyline fill="none" stroke="#000101" stroke-width="0.4" stroke-miterlimit="3.86" points="44.3,35.2 44.1,34.4 44.3,33.5 
	45,34.2 45.2,35 "/>
<polyline fill="none" stroke="#000101" stroke-width="0.4" stroke-miterlimit="3.86" points="45.9,34.8 45.8,33.9 46.2,33.1 
	46.7,33.8 46.8,34.7 "/>
<polyline fill="none" stroke="#000101" stroke-width="0.4" stroke-miterlimit="3.86" points="47.6,34.7 47.7,33.9 48.2,33.1 
	48.6,33.9 48.6,34.8 "/>
<polyline fill="none" stroke="#000101" stroke-width="0.4" stroke-miterlimit="3.86" points="49.4,35 49.6,34.2 50.2,33.6 
	50.5,34.5 50.3,35.3 "/>
<path d="M131.7,32.8c-2,1.7-4.9,2.5-8.7,2.5h-7.2v12.4h-7.2V13.2h14.8c3-0.2,5.9,0.8,8.2,2.7c2,1.8,3,4.5,3,8.3
	C134.7,28.2,133.7,31.1,131.7,32.8z M126.2,20.4c-1.1-0.8-2.5-1.2-3.8-1.1h-6.5v10.2h6.5c1.4,0.1,2.8-0.4,3.8-1.2
	c1-1.1,1.5-2.5,1.4-3.9C127.7,22.8,127.2,21.4,126.2,20.4z"/>
<path d="M140.5,13.2h7.3v21.2c-0.1,1.8,0.2,3.5,0.8,5.2c0.9,1.9,2.8,2.9,5.7,2.9c2.9,0,4.8-1,5.7-2.9c0.7-1.7,0.9-3.4,0.8-5.2V13.2
	h7.3v21.2c0,3.7-0.6,6.5-1.7,8.6c-2.1,3.8-6.2,5.6-12.1,5.6s-10-1.9-12.2-5.7c-1.1-2-1.7-4.9-1.7-8.6L140.5,13.2z"/>
<path d="M178.5,16.8c2.8-2.8,6.6-4.4,10.6-4.3c5.8,0,10,1.9,12.6,5.7c1.4,1.9,2.2,4.1,2.4,6.4h-7.2c-0.3-1.4-0.9-2.6-1.8-3.7
	c-3.1-3-8-3-11.1,0.1c-0.3,0.3-0.5,0.5-0.7,0.8c-1.5,2.1-2.2,5.1-2.2,9s0.8,6.8,2.3,8.7c1.4,1.9,3.7,2.9,6,2.9
	c2.2,0.1,4.3-0.8,5.6-2.5c0.9-1.2,1.5-2.6,1.8-4h7.2c-0.5,3.5-2.2,6.8-4.7,9.2c-2.7,2.4-6.2,3.7-9.8,3.5c-4.9,0-8.8-1.6-11.6-4.8
	c-2.8-3.2-4.2-7.6-4.2-13.2C173.7,24.7,175.3,20.1,178.5,16.8z"/>
<path d="M232.8,13.2h10.4v34.5h-6.7V24.4c0-0.7,0-1.6,0-2.8c0-1.2,0-2.1,0-2.8l-6.6,29h-7l-6.5-29c0,0.6,0,1.6,0,2.8s0,2.1,0,2.8
	v23.4h-6.7V13.2h10.5l6.3,27.2L232.8,13.2z"/>
<path d="M272.8,13.2h10.4v34.5h-6.7V24.4c0-0.7,0-1.6,0-2.8s0-2.1,0-2.8l-6.5,29h-7l-6.5-29c0,0.6,0,1.6,0,2.8s0,2.1,0,2.8v23.4
	h-6.7V13.2h10.5l6.3,27.2L272.8,13.2z"/>
<path d="M108.9,57h3.9c0.7,0,1.3,0.2,1.9,0.7c0.5,0.5,0.8,1.2,0.7,1.8c0,0.6-0.2,1.3-0.6,1.8c-0.5,0.5-1.2,0.8-1.9,0.8h-2.7v3.7
	h-1.2V57z M113.5,58.2c-0.3-0.1-0.7-0.2-1.1-0.2h-2.3v3h2.3c0.4,0,0.9-0.1,1.3-0.3c0.4-0.3,0.5-0.7,0.5-1.2
	C114.2,58.9,113.9,58.4,113.5,58.2L113.5,58.2z"/>
<path d="M121.7,59.9c0.6,0.7,0.9,1.5,0.8,2.4c0,0.9-0.2,1.8-0.7,2.5c-0.6,0.7-1.4,1.1-2.3,1c-0.8,0-1.5-0.3-2.1-0.9
	c-0.5-0.7-0.8-1.5-0.8-2.4c-0.1-0.9,0.2-1.8,0.8-2.5c0.5-0.6,1.3-1,2.2-0.9C120.4,59.1,121.1,59.4,121.7,59.9z M121,64.2
	c0.3-0.6,0.4-1.2,0.4-1.8c0-0.5-0.1-1-0.3-1.4c-0.3-0.6-0.9-0.9-1.5-0.9c-0.6,0-1.1,0.2-1.4,0.7c-0.3,0.5-0.5,1.2-0.4,1.8
	c0,0.6,0.1,1.2,0.4,1.7c0.3,0.5,0.8,0.7,1.4,0.7C120.2,65,120.7,64.7,121,64.2z"/>
<path d="M124.2,59.3h1v0.9c0.3-0.3,0.6-0.6,1-0.8c0.3-0.2,0.7-0.2,1.1-0.2c0.7-0.1,1.5,0.3,1.8,0.9c0.2,0.5,0.3,1,0.3,1.5v4.1h-1.1
	v-4c0-0.3,0-0.6-0.2-0.9c-0.2-0.4-0.6-0.6-1-0.6c-0.2,0-0.4,0-0.6,0.1c-0.5,0.2-1,0.6-1.1,1.2c-0.1,0.3-0.1,0.7-0.1,1v3.3h-1.1
	L124.2,59.3z"/>
<path d="M131.6,57.5h1.1v1.8h1v0.9h-1v4.1c0,0.2,0.1,0.4,0.2,0.4c0.1,0,0.3,0.1,0.4,0.1h0.2h0.2v0.8c-0.1,0-0.3,0.1-0.4,0.1
	c-0.1,0-0.3,0-0.4,0c-0.4,0-0.8-0.1-1-0.4c-0.2-0.3-0.3-0.6-0.3-1v-4.2h-0.9v-0.9h0.9L131.6,57.5z"/>
<path d="M135.1,57h1.1v1.2h-1.1V57z M135.1,59.4h1.1v6.3h-1.1V59.4z"/>
<path d="M138.7,57.4c0.4-0.4,0.9-0.6,1.4-0.5h0.4v1h-0.4c-0.3,0-0.5,0.1-0.6,0.2c-0.1,0.4-0.1,0.9-0.1,1.3h1.1v0.8h-1.1v5.5h-1v-5.5
	h-0.9v-0.8h0.9v-1C138.5,58,138.5,57.7,138.7,57.4z"/>
<path d="M141.9,57h1.1v1.2h-1.1L141.9,57z M141.9,59.4h1.1v6.3h-1.1L141.9,59.4z"/>
<path d="M149.2,59.7c0.5,0.5,0.8,1.1,0.8,1.8h-1c0-0.4-0.2-0.7-0.4-1c-0.3-0.3-0.7-0.4-1.1-0.4c-0.7,0-1.2,0.4-1.5,1
	c-0.2,0.5-0.3,1-0.3,1.6c0,0.6,0.1,1.1,0.4,1.6c0.3,0.4,0.8,0.7,1.3,0.7c0.4,0,0.7-0.1,1-0.4c0.3-0.3,0.5-0.7,0.6-1.1h1
	c0,1.4-1.2,2.5-2.6,2.4c0,0-0.1,0-0.1,0c-0.8,0-1.5-0.3-2-0.9c-0.5-0.6-0.8-1.4-0.7-2.3c-0.1-0.9,0.2-1.9,0.8-2.6
	c0.5-0.6,1.3-1,2.1-0.9C148.1,59.1,148.7,59.3,149.2,59.7z"/>
<path d="M151.5,57h1.1v1.2h-1.1V57z M151.5,59.4h1.1v6.3h-1.1V59.4z"/>
<path d="M157.9,61.8c0.2,0,0.4-0.1,0.5-0.3c0.2-0.4,0.1-0.9-0.3-1.2c-0.3-0.2-0.7-0.3-1.1-0.2c-0.4,0-0.9,0.1-1.2,0.5
	c-0.1,0.2-0.2,0.5-0.2,0.7h-1c0-0.6,0.2-1.3,0.8-1.6c0.5-0.3,1.1-0.5,1.7-0.5c0.6,0,1.3,0.1,1.8,0.4c0.5,0.3,0.7,0.8,0.7,1.3v3.6
	c0,0.1,0,0.2,0.1,0.3c0,0.1,0.1,0.1,0.3,0.1h0.1h0.2v0.8c-0.1,0-0.2,0.1-0.4,0.1c-0.1,0-0.2,0-0.4,0c-0.3,0-0.6-0.1-0.8-0.4
	c-0.1-0.2-0.2-0.4-0.2-0.6c-0.3,0.3-0.6,0.6-0.9,0.7c-0.4,0.2-0.9,0.3-1.3,0.3c-0.5,0-1.1-0.2-1.4-0.5c-0.4-0.3-0.6-0.8-0.6-1.3
	c0-0.5,0.2-1,0.6-1.4c0.4-0.3,0.9-0.5,1.4-0.6L157.9,61.8z M155.7,64.7c0.2,0.2,0.5,0.3,0.8,0.3c0.4,0,0.8-0.1,1.1-0.3
	c0.6-0.2,0.9-0.8,0.9-1.4v-0.8c-0.2,0.1-0.3,0.2-0.5,0.2c-0.2,0.1-0.4,0.1-0.6,0.1l-0.6,0.1c-0.3,0-0.6,0.1-0.9,0.2
	c-0.3,0.2-0.5,0.5-0.5,0.9C155.4,64.2,155.5,64.5,155.7,64.7z"/>
<path d="M166.8,57v5.4c0,0.5,0.1,1.1,0.4,1.6c0.4,0.6,1.1,1,1.8,1c0.8,0.1,1.6-0.3,2-1c0.2-0.5,0.3-1,0.3-1.5V57h1.2v4.9
	c0,0.8-0.1,1.7-0.4,2.5c-1.1,1.7-3.4,2.1-5.1,0.9c-0.4-0.2-0.7-0.6-0.9-0.9c-0.3-0.8-0.5-1.6-0.4-2.5V57H166.8z"/>
<path d="M174.6,59.3h1v0.9c0.3-0.3,0.6-0.6,1-0.8c0.3-0.2,0.7-0.2,1.1-0.2c0.7-0.1,1.5,0.3,1.8,0.9c0.2,0.5,0.3,1,0.3,1.5v4.1h-1.1
	v-4c0-0.3,0-0.6-0.2-0.9c-0.2-0.4-0.6-0.6-1-0.6c-0.2,0-0.4,0-0.6,0.1c-0.5,0.2-1,0.6-1.1,1.2c-0.1,0.3-0.1,0.7-0.1,1v3.3h-1.1
	L174.6,59.3z"/>
<path d="M181.7,57h1.1v1.2h-1.1V57z M181.7,59.4h1.1v6.3h-1.1V59.4z"/>
<path d="M185.3,59.3l1.7,5.2l1.8-5.2h1.2l-2.4,6.3h-1.1l-2.3-6.3H185.3z"/>
<path d="M195.1,59.5c0.4,0.2,0.7,0.5,1,0.8c0.2,0.3,0.4,0.7,0.4,1.1c0.1,0.5,0.1,0.9,0.1,1.4H192c0,0.5,0.1,1.1,0.4,1.6
	c0.3,0.4,0.8,0.6,1.3,0.6c0.5,0,1-0.2,1.3-0.6c0.2-0.2,0.3-0.5,0.4-0.7h1c0,0.3-0.1,0.5-0.3,0.8c-0.1,0.3-0.3,0.5-0.5,0.7
	c-0.3,0.3-0.8,0.5-1.2,0.6c-0.3,0.1-0.6,0.1-0.9,0.1c-0.8,0-1.5-0.3-2-0.9c-0.6-0.7-0.9-1.5-0.8-2.4c0-0.9,0.3-1.8,0.8-2.5
	c0.5-0.6,1.3-1,2.1-1C194.2,59.2,194.7,59.3,195.1,59.5z M195.5,62c0-0.4-0.1-0.8-0.3-1.1c-0.3-0.5-0.9-0.8-1.4-0.8
	c-0.5,0-0.9,0.2-1.2,0.5c-0.3,0.4-0.5,0.9-0.5,1.4L195.5,62z"/>
<path d="M198.4,59.3h1v1.1c0.1-0.3,0.4-0.6,0.6-0.8c0.3-0.3,0.7-0.5,1.1-0.5h0.1h0.2v1.1h-0.2h-0.2c-0.5,0-0.9,0.2-1.2,0.5
	c-0.3,0.3-0.4,0.8-0.4,1.2v3.7h-1.1L198.4,59.3z"/>
<path d="M203.4,63.7c0,0.3,0.1,0.6,0.3,0.8c0.4,0.4,0.9,0.6,1.4,0.5c0.4,0,0.7-0.1,1.1-0.3c0.3-0.1,0.5-0.5,0.5-0.8
	c0-0.3-0.1-0.5-0.4-0.6c-0.3-0.1-0.6-0.2-0.9-0.3l-0.9-0.2c-0.4-0.1-0.8-0.2-1.2-0.5c-0.4-0.2-0.7-0.7-0.7-1.2
	c0-0.6,0.2-1.1,0.6-1.5c0.5-0.4,1.1-0.6,1.8-0.6c0.8-0.1,1.6,0.2,2.1,0.8c0.3,0.3,0.4,0.7,0.4,1.2h-1c0-0.2-0.1-0.5-0.3-0.7
	c-0.4-0.3-0.8-0.5-1.3-0.4c-0.3,0-0.7,0.1-0.9,0.2c-0.2,0.1-0.3,0.4-0.3,0.6c0,0.3,0.2,0.5,0.4,0.7c0.2,0.1,0.5,0.2,0.7,0.3l0.7,0.2
	c0.5,0.1,1.1,0.3,1.6,0.5c0.4,0.3,0.7,0.8,0.6,1.3c0,0.6-0.2,1.1-0.6,1.5c-0.6,0.5-1.3,0.7-2,0.6c-0.7,0.1-1.4-0.2-2-0.6
	c-0.4-0.4-0.6-1-0.6-1.6H203.4z"/>
<path d="M209.2,57h1.1v1.2h-1.1V57z M209.2,59.4h1.1v6.3h-1.1V59.4z"/>
<path d="M215.8,59.5c0.2,0.2,0.5,0.4,0.6,0.6v-3.2h1v8.7h-1v-0.9c-0.2,0.4-0.5,0.7-0.9,0.8c-0.4,0.2-0.8,0.3-1.2,0.3
	c-0.7,0-1.4-0.3-1.8-0.9c-0.5-0.7-0.8-1.5-0.8-2.4c0-0.9,0.2-1.7,0.7-2.4c0.5-0.7,1.2-1,2-1C214.9,59.2,215.4,59.3,215.8,59.5z
	 M213.4,64.2c0.3,0.5,0.8,0.7,1.4,0.7c0.5,0,0.9-0.2,1.2-0.6c0.4-0.5,0.5-1.2,0.5-1.8c0.1-0.6-0.1-1.3-0.4-1.8
	c-0.3-0.4-0.7-0.6-1.2-0.6c-0.5,0-1,0.2-1.3,0.6c-0.4,0.5-0.5,1.2-0.5,1.8C213,63.1,213.1,63.7,213.4,64.2z"/>
<path d="M222.8,61.8c0.2,0,0.4-0.1,0.5-0.3c0.2-0.4,0.1-0.9-0.3-1.2c-0.3-0.2-0.7-0.3-1.1-0.2c-0.4,0-0.9,0.1-1.2,0.5
	c-0.1,0.2-0.2,0.5-0.2,0.7h-1c0-0.6,0.2-1.3,0.8-1.6c0.5-0.3,1.1-0.5,1.7-0.5c0.6,0,1.3,0.1,1.8,0.4c0.5,0.3,0.7,0.8,0.7,1.3v3.6
	c0,0.1,0,0.2,0.1,0.3c0,0.1,0.1,0.1,0.3,0.1h0.2h0.2v0.8c-0.1,0-0.2,0.1-0.4,0.1c-0.1,0-0.2,0-0.4,0c-0.3,0-0.6-0.1-0.8-0.4
	c-0.1-0.2-0.2-0.4-0.2-0.6c-0.3,0.3-0.6,0.6-0.9,0.7c-0.4,0.2-0.9,0.3-1.3,0.3c-0.5,0-1.1-0.2-1.4-0.5c-0.4-0.3-0.6-0.8-0.6-1.3
	c0-0.5,0.2-1,0.6-1.4c0.4-0.3,0.9-0.5,1.4-0.6L222.8,61.8z M220.6,64.7c0.2,0.2,0.5,0.3,0.8,0.3c0.4,0,0.8-0.1,1.1-0.3
	c0.6-0.2,0.9-0.8,0.9-1.4v-0.8c-0.2,0.1-0.3,0.2-0.5,0.2c-0.2,0.1-0.4,0.1-0.6,0.1l-0.6,0.1c-0.3,0-0.6,0.1-0.9,0.2
	c-0.3,0.2-0.5,0.5-0.5,0.9C220.2,64.2,220.3,64.5,220.6,64.7z"/>
<path d="M230,59.5c0.2,0.2,0.5,0.4,0.6,0.6v-3.2h1v8.7h-1v-0.9c-0.2,0.4-0.5,0.7-0.9,0.8c-0.4,0.2-0.8,0.3-1.2,0.3
	c-0.7,0-1.4-0.3-1.8-0.9c-0.5-0.7-0.8-1.5-0.8-2.4c0-0.9,0.2-1.7,0.7-2.4c0.5-0.7,1.2-1,2-1C229.2,59.2,229.6,59.3,230,59.5z
	 M227.6,64.2c0.3,0.5,0.8,0.7,1.4,0.7c0.5,0,0.9-0.2,1.2-0.6c0.4-0.5,0.5-1.2,0.5-1.8c0-0.6-0.1-1.3-0.5-1.8
	c-0.3-0.4-0.7-0.6-1.2-0.6c-0.5,0-1,0.2-1.3,0.6c-0.4,0.5-0.5,1.2-0.5,1.8C227.2,63.1,227.3,63.7,227.6,64.2L227.6,64.2z"/>
<path d="M243.7,57.6c0.6,0.5,0.9,1.2,1,2h-1.1c-0.2-1.1-1.2-1.9-2.4-1.8c-0.8,0-1.5,0.3-2,0.9c-0.6,0.8-0.9,1.8-0.8,2.8
	c0,0.9,0.2,1.8,0.7,2.5c0.5,0.7,1.3,1,2.1,1c0.8,0.1,1.6-0.3,2-1c0.3-0.4,0.4-0.9,0.5-1.4h1.1c-0.1,0.9-0.4,1.7-1,2.3
	c-0.8,0.8-1.8,1.1-2.9,1c-0.9,0-1.8-0.3-2.5-0.9c-1.7-2-1.8-4.8-0.3-6.9c0.7-0.9,1.8-1.4,3-1.3C242.1,56.7,243,57,243.7,57.6z"/>
<path d="M249.9,61.8c0.2,0,0.4-0.1,0.5-0.3c0.2-0.4,0.1-0.9-0.3-1.2c-0.3-0.2-0.7-0.3-1.1-0.2c-0.4,0-0.9,0.1-1.2,0.5
	c-0.1,0.2-0.2,0.5-0.2,0.7h-1c0-0.6,0.2-1.3,0.8-1.6c0.5-0.3,1.1-0.5,1.7-0.5c0.6,0,1.3,0.1,1.8,0.4c0.5,0.3,0.7,0.8,0.7,1.3v3.6
	c0,0.1,0,0.2,0.1,0.3c0,0.1,0.1,0.1,0.3,0.1h0.1h0.2v0.8c-0.1,0-0.2,0.1-0.4,0.1c-0.1,0-0.2,0-0.4,0c-0.3,0-0.6-0.1-0.8-0.4
	c-0.1-0.2-0.2-0.4-0.2-0.6c-0.3,0.3-0.6,0.6-0.9,0.7c-0.4,0.2-0.9,0.3-1.3,0.3c-0.5,0-1.1-0.2-1.4-0.5c-0.4-0.3-0.6-0.8-0.6-1.3
	c0-0.5,0.2-1,0.6-1.4c0.4-0.3,0.9-0.5,1.4-0.6L249.9,61.8z M247.7,64.7c0.2,0.2,0.5,0.3,0.8,0.3c0.4,0,0.8-0.1,1.1-0.3
	c0.6-0.2,0.9-0.8,0.9-1.4v-0.8c-0.2,0.1-0.3,0.2-0.5,0.2c-0.2,0.1-0.4,0.1-0.6,0.1l-0.6,0.1c-0.3,0-0.6,0.1-0.9,0.2
	c-0.3,0.2-0.5,0.5-0.5,0.9C247.4,64.2,247.5,64.5,247.7,64.7z"/>
<path d="M253.9,57.5h1.1v1.8h1v0.9h-1v4.1c0,0.2,0.1,0.4,0.2,0.4c0.1,0,0.3,0.1,0.4,0.1h0.2h0.2v0.8c-0.1,0-0.3,0.1-0.4,0.1
	c-0.1,0-0.3,0-0.4,0c-0.4,0-0.8-0.1-1-0.4c-0.2-0.3-0.3-0.6-0.3-1v-4.2H253v-0.9h0.9L253.9,57.5z"/>
<path d="M262,59.9c0.6,0.7,0.9,1.5,0.8,2.4c0,0.9-0.2,1.8-0.7,2.5c-0.6,0.7-1.4,1.1-2.3,1c-0.8,0-1.5-0.3-2.1-0.9
	c-0.5-0.7-0.8-1.5-0.8-2.4c-0.1-0.9,0.2-1.8,0.8-2.5c0.5-0.6,1.3-1,2.2-0.9C260.7,59.1,261.4,59.4,262,59.9z M261.3,64.2
	c0.3-0.6,0.4-1.2,0.4-1.8c0-0.5-0.1-1-0.3-1.4c-0.3-0.6-0.9-0.9-1.5-0.9c-0.6,0-1.1,0.2-1.4,0.7c-0.3,0.5-0.5,1.2-0.4,1.8
	c0,0.6,0.1,1.2,0.4,1.7c0.3,0.5,0.8,0.7,1.4,0.7C260.5,65,261.1,64.7,261.3,64.2L261.3,64.2z M261.2,56.8l-1.6,1.7h-0.8l1.1-1.7
	H261.2z"/>
<path d="M264.6,57h1.1v8.7h-1.1V57z"/>
<path d="M267.6,57h1.1v1.2h-1.1V57z M267.6,59.4h1.1v6.3h-1.1V59.4z"/>
<path d="M274.9,59.7c0.5,0.5,0.8,1.1,0.8,1.8h-1c0-0.4-0.2-0.7-0.4-1c-0.3-0.3-0.7-0.4-1.1-0.4c-0.6,0-1.2,0.4-1.5,1
	c-0.2,0.5-0.3,1-0.3,1.6c0,0.6,0.1,1.1,0.4,1.6c0.3,0.4,0.8,0.7,1.3,0.7c0.4,0,0.8-0.1,1-0.4c0.3-0.3,0.5-0.7,0.5-1.1h1
	c0,1.4-1.2,2.5-2.5,2.4c-0.1,0-0.1,0-0.2,0c-0.8,0-1.5-0.3-2-0.9c-0.5-0.6-0.8-1.4-0.7-2.3c-0.1-0.9,0.2-1.9,0.8-2.6
	c0.5-0.6,1.3-0.9,2.1-0.9C273.8,59.1,274.4,59.3,274.9,59.7z"/>
<path d="M280.5,61.8c0.2,0,0.4-0.1,0.5-0.3c0.2-0.4,0-0.9-0.3-1.2c-0.3-0.2-0.7-0.3-1.1-0.2c-0.4,0-0.9,0.1-1.2,0.5
	c-0.2,0.2-0.2,0.5-0.3,0.7h-1c-0.1-0.6,0.2-1.3,0.8-1.6c0.5-0.3,1.1-0.5,1.7-0.5c0.6,0,1.3,0.1,1.8,0.4c0.5,0.3,0.7,0.8,0.7,1.3v3.6
	c0,0.1,0,0.2,0.1,0.3c0,0.1,0.1,0.1,0.3,0.1h0.2h0.2v0.8c-0.1,0-0.3,0.1-0.4,0.1c-0.1,0-0.2,0-0.4,0c-0.3,0-0.6-0.1-0.8-0.4
	c-0.1-0.2-0.2-0.4-0.2-0.6c-0.3,0.3-0.6,0.6-0.9,0.7c-0.4,0.2-0.9,0.3-1.3,0.3c-0.5,0-1.1-0.2-1.4-0.5c-0.4-0.3-0.6-0.8-0.6-1.3
	c0-0.5,0.2-1,0.5-1.4c0.4-0.3,0.9-0.5,1.4-0.6L280.5,61.8z M278.3,64.7c0.2,0.2,0.5,0.3,0.8,0.3c0.4,0,0.8-0.1,1.1-0.3
	c0.6-0.2,0.9-0.8,0.9-1.4v-0.8c-0.2,0.1-0.3,0.2-0.5,0.2c-0.2,0.1-0.4,0.1-0.6,0.1l-0.6,0.1c-0.3,0-0.6,0.1-0.9,0.2
	c-0.3,0.2-0.5,0.6-0.5,0.9C278,64.3,278.1,64.5,278.3,64.7z"/>
<path d="M108.8,71.5h1.7l2.5,7.3l2.5-7.3h1.7v8.7H116v-5.1c0-0.2,0-0.5,0-0.9s0-0.8,0-1.3l-2.5,7.3h-1.2l-2.5-7.3v0.3
	c0,0.2,0,0.5,0,1s0,0.8,0,1v5.1h-1.1L108.8,71.5z"/>
<path d="M122.5,76.3c0.2,0,0.4-0.2,0.5-0.3c0.1-0.1,0.1-0.3,0.1-0.4c0-0.3-0.1-0.6-0.4-0.8c-0.3-0.2-0.7-0.3-1.1-0.2
	c-0.4,0-0.9,0.1-1.2,0.4c-0.1,0.2-0.2,0.5-0.2,0.8h-1c0-0.6,0.2-1.3,0.8-1.6c0.5-0.3,1.1-0.5,1.7-0.5c0.6,0,1.3,0.1,1.8,0.4
	c0.5,0.3,0.7,0.8,0.7,1.3V79c0,0.1,0,0.2,0.1,0.3c0,0.1,0.1,0.1,0.3,0.1h0.2h0.2v0.8l-0.4,0.1h-0.4c-0.3,0-0.6-0.1-0.8-0.4
	c-0.1-0.2-0.2-0.4-0.2-0.6c-0.3,0.3-0.6,0.6-0.9,0.7c-0.4,0.2-0.9,0.3-1.3,0.3c-0.5,0-1.1-0.2-1.4-0.5c-0.4-0.3-0.6-0.8-0.6-1.3
	c0-0.5,0.2-1,0.6-1.4c0.4-0.3,0.9-0.5,1.4-0.6L122.5,76.3z M120.3,79.2c0.2,0.2,0.5,0.3,0.8,0.3c0.4,0,0.8-0.1,1.1-0.3
	c0.6-0.2,0.9-0.8,0.9-1.4V77c-0.2,0.1-0.3,0.2-0.5,0.2c-0.2,0.1-0.4,0.1-0.6,0.1l-0.6,0.1c-0.3,0-0.6,0.1-0.9,0.2
	c-0.3,0.2-0.5,0.5-0.5,0.9C119.9,78.8,120.1,79.1,120.3,79.2z"/>
<path d="M129.7,74c0.2,0.2,0.5,0.4,0.6,0.6v-3.2h1v8.7h-1v-0.8c-0.2,0.4-0.5,0.6-0.9,0.8c-0.4,0.2-0.8,0.3-1.2,0.3
	c-0.7,0-1.4-0.3-1.8-0.9c-0.5-0.7-0.8-1.5-0.8-2.4c0-0.9,0.2-1.7,0.7-2.4c0.4-0.7,1.2-1,2-1C128.9,73.7,129.3,73.8,129.7,74z
	 M127.3,78.8c0.3,0.5,0.8,0.7,1.4,0.7c0.5,0,0.9-0.2,1.2-0.6c0.4-0.5,0.5-1.2,0.5-1.8c0.1-0.6-0.1-1.3-0.5-1.8
	c-0.3-0.4-0.7-0.6-1.2-0.6c-0.5,0-1,0.2-1.3,0.6c-0.4,0.5-0.5,1.2-0.5,1.8C126.9,77.7,127,78.3,127.3,78.8L127.3,78.8z"/>
<path d="M133.4,73.8h1v1.1c0.1-0.3,0.4-0.6,0.6-0.8c0.3-0.3,0.7-0.5,1.1-0.4h0.1h0.2v1.1h-0.2h-0.2c-0.5,0-0.9,0.2-1.2,0.5
	c-0.3,0.3-0.4,0.8-0.4,1.2v3.6h-1.1V73.8z"/>
<path d="M141.7,74c0.4,0.2,0.7,0.5,1,0.8c0.2,0.3,0.4,0.7,0.4,1.1c0.1,0.5,0.1,0.9,0.1,1.4h-4.6c0,0.5,0.1,1.1,0.4,1.6
	c0.3,0.4,0.8,0.6,1.3,0.6c0.5,0,1-0.2,1.3-0.6c0.2-0.2,0.3-0.5,0.4-0.7h1.1c0,0.3-0.1,0.5-0.3,0.8c-0.1,0.3-0.3,0.5-0.5,0.7
	c-0.3,0.3-0.7,0.5-1.2,0.6c-0.3,0.1-0.6,0.1-0.9,0.1c-0.8,0-1.5-0.3-2-0.9c-0.6-0.7-0.9-1.5-0.8-2.4c0-0.9,0.2-1.8,0.8-2.5
	c0.5-0.6,1.3-1,2.2-1C140.9,73.7,141.3,73.8,141.7,74z M142.1,76.5c0-0.4-0.1-0.8-0.3-1.1c-0.3-0.5-0.9-0.8-1.4-0.8
	c-0.5,0-0.9,0.2-1.2,0.5c-0.3,0.4-0.5,0.9-0.5,1.3H142.1z"/>
<path d="M152.6,73.8h1.2c-0.1,0.4-0.5,1.3-1,2.8c-0.4,1.1-0.7,2-1,2.7c-0.3,1-0.8,2-1.3,3c-0.3,0.4-0.8,0.6-1.3,0.5h-0.4l-0.3-0.1
	v-1l0.4,0.1h0.2c0.2,0,0.3,0,0.4-0.1c0.1-0.1,0.2-0.1,0.2-0.2c0,0,0.1-0.2,0.2-0.5l0.3-0.7l-2.3-6.5h1.2l1.7,5.2L152.6,73.8z"/>
<path d="M159,71.5h1.7l2.5,7.3l2.5-7.3h1.7v8.7h-1.1v-5.1c0-0.2,0-0.5,0-0.9s0-0.8,0-1.3l-2.5,7.3h-1.2l-2.5-7.3v0.3
	c0,0.2,0,0.5,0,1s0,0.8,0,1v5.1H159V71.5z"/>
<path d="M172.7,76.3c0.2,0,0.4-0.1,0.5-0.3c0.1-0.1,0.1-0.3,0.1-0.4c0-0.3-0.1-0.6-0.4-0.8c-0.3-0.2-0.7-0.3-1.1-0.2
	c-0.4,0-0.9,0.1-1.2,0.4c-0.1,0.2-0.2,0.5-0.2,0.8h-1c0-0.6,0.2-1.3,0.8-1.6c0.5-0.3,1.1-0.5,1.7-0.5c0.6,0,1.3,0.1,1.8,0.4
	c0.5,0.3,0.7,0.8,0.7,1.3v3.7c0,0.1,0,0.2,0.1,0.3c0,0.1,0.1,0.1,0.3,0.1h0.2h0.2v0.8l-0.4,0.1h-0.4c-0.3,0-0.6-0.1-0.8-0.4
	c-0.1-0.2-0.2-0.4-0.2-0.6c-0.3,0.3-0.6,0.6-0.9,0.7c-0.4,0.2-0.9,0.3-1.3,0.3c-0.5,0-1.1-0.2-1.4-0.5c-0.4-0.3-0.6-0.8-0.6-1.3
	c0-0.5,0.2-1,0.6-1.4c0.4-0.3,0.9-0.5,1.4-0.6L172.7,76.3z M170.5,79.2c0.2,0.2,0.5,0.3,0.8,0.3c0.4,0,0.8-0.1,1.1-0.3
	c0.6-0.2,0.9-0.8,0.9-1.4V77c-0.2,0.1-0.3,0.2-0.5,0.2c-0.2,0.1-0.4,0.1-0.6,0.1l-0.6,0.1c-0.3,0-0.6,0.1-0.9,0.2
	c-0.3,0.2-0.5,0.5-0.5,0.9C170.2,78.8,170.3,79.1,170.5,79.2z"/>
<path d="M180.4,74c0.4,0.2,0.7,0.5,1,0.8c0.2,0.3,0.4,0.7,0.4,1.1c0.1,0.5,0.1,0.9,0.1,1.4h-4.6c0,0.6,0.2,1.1,0.5,1.6
	c0.3,0.4,0.8,0.6,1.3,0.6c0.5,0,1-0.2,1.3-0.6c0.2-0.2,0.3-0.5,0.4-0.7h1c0,0.3-0.1,0.5-0.3,0.8c-0.1,0.3-0.3,0.5-0.5,0.7
	c-0.3,0.3-0.7,0.5-1.2,0.6c-0.3,0.1-0.6,0.1-0.9,0.1c-0.8,0-1.5-0.3-2-0.9c-0.6-0.7-0.9-1.5-0.8-2.4c0-0.9,0.3-1.8,0.8-2.5
	c0.5-0.7,1.3-1,2.1-1C179.5,73.7,180,73.8,180.4,74z M180.8,76.5c0-0.4-0.1-0.8-0.3-1.1c-0.3-0.5-0.9-0.8-1.4-0.8
	c-0.5,0-0.9,0.2-1.2,0.5c-0.3,0.4-0.5,0.9-0.5,1.3H180.8z"/>
<path d="M184.2,78.2c0,0.3,0.1,0.6,0.3,0.8c0.4,0.4,0.9,0.6,1.4,0.5c0.4,0,0.7-0.1,1.1-0.3c0.3-0.2,0.5-0.5,0.5-0.8
	c0-0.3-0.1-0.5-0.4-0.6c-0.3-0.1-0.6-0.2-0.9-0.3l-0.9-0.2c-0.4-0.1-0.8-0.2-1.2-0.4c-0.4-0.2-0.7-0.7-0.7-1.2
	c0-0.6,0.2-1.1,0.7-1.4c0.5-0.4,1.1-0.6,1.8-0.6c0.8-0.1,1.6,0.2,2.1,0.8c0.3,0.3,0.4,0.7,0.4,1.2h-1c0-0.2-0.1-0.5-0.3-0.7
	c-0.4-0.3-0.8-0.5-1.3-0.4c-0.3,0-0.7,0.1-0.9,0.2c-0.2,0.1-0.3,0.4-0.3,0.6c0,0.3,0.2,0.5,0.4,0.7c0.2,0.1,0.5,0.2,0.7,0.3l0.7,0.2
	c0.5,0.1,1.1,0.3,1.6,0.5c0.4,0.3,0.7,0.8,0.6,1.3c0,0.6-0.2,1.1-0.6,1.5c-0.6,0.5-1.3,0.7-2,0.6c-0.7,0.1-1.5-0.2-2-0.7
	c-0.4-0.4-0.6-1-0.6-1.6L184.2,78.2z"/>
<path d="M190.3,72.1h1.1v1.8h1v0.9h-1v4.1c0,0.2,0.1,0.4,0.2,0.4c0.1,0,0.3,0.1,0.4,0.1h0.2h0.2v0.8c-0.1,0-0.3,0.1-0.4,0.1
	c-0.1,0-0.3,0-0.4,0c-0.4,0-0.7-0.1-1-0.4c-0.2-0.3-0.3-0.6-0.3-1v-4.2h-0.9v-0.9h0.9L190.3,72.1z"/>
<path d="M193.8,73.8h1v1.1c0.1-0.3,0.4-0.6,0.6-0.8c0.3-0.3,0.7-0.5,1.1-0.4h0.1h0.2v1.1h-0.2h-0.2c-0.5,0-0.9,0.2-1.2,0.5
	c-0.3,0.3-0.4,0.8-0.4,1.2v3.6h-1.1L193.8,73.8z"/>
<path d="M201.6,76.3c0.2,0,0.4-0.1,0.5-0.3c0.1-0.1,0.1-0.3,0.1-0.4c0-0.3-0.1-0.6-0.4-0.8c-0.3-0.2-0.7-0.3-1.1-0.2
	c-0.4,0-0.9,0.1-1.2,0.4c-0.1,0.2-0.2,0.5-0.2,0.8h-1c0-0.6,0.2-1.3,0.8-1.6c0.5-0.3,1.1-0.5,1.7-0.5c0.6,0,1.3,0.1,1.8,0.4
	c0.5,0.3,0.7,0.8,0.7,1.3v3.7c0,0.1,0,0.2,0.1,0.3c0,0.1,0.1,0.1,0.3,0.1h0.1h0.2v0.8c-0.1,0-0.2,0.1-0.4,0.1h-0.4
	c-0.3,0-0.6-0.1-0.8-0.4c-0.1-0.2-0.2-0.4-0.2-0.6c-0.3,0.3-0.6,0.6-0.9,0.7c-0.4,0.2-0.9,0.3-1.3,0.3c-0.5,0-1.1-0.2-1.4-0.5
	c-0.4-0.3-0.6-0.8-0.6-1.3c0-0.5,0.2-1,0.6-1.4c0.4-0.3,0.9-0.5,1.4-0.6L201.6,76.3z M199.4,79.2c0.2,0.2,0.5,0.3,0.8,0.3
	c0.4,0,0.8-0.1,1.1-0.3c0.6-0.2,0.9-0.8,0.9-1.4V77c-0.2,0.1-0.3,0.2-0.5,0.2c-0.2,0.1-0.4,0.1-0.6,0.1l-0.6,0.1
	c-0.3,0-0.6,0.1-0.9,0.2c-0.3,0.2-0.5,0.5-0.5,0.9C199,78.8,199.2,79.1,199.4,79.2z"/>
</svg>
